<svg width="580" height="72" viewBox="0 0 580 72" fill="none" xmlns="http://www.w3.org/2000/svg">
<rect width="580" height="72" fill="#0D1117"/>
<path d="M20.8864 33L24.7045 9.72727H27.8864L24.0682 33H20.8864ZM10.3977 27L10.9318 23.8182H28.8409L28.3068 27H10.3977ZM12.7045 33L16.5227 9.72727H19.7045L15.8864 33H12.7045ZM11.75 18.9091L12.2727 15.7273H30.1818L29.6591 18.9091H11.75ZM32.8892 33V9.72727H37.0028V18.4318H37.1733C37.3854 18.0076 37.6847 17.5568 38.071 17.0795C38.4574 16.5947 38.9801 16.1818 39.6392 15.8409C40.2983 15.4924 41.1392 15.3182 42.1619 15.3182C43.5104 15.3182 44.7263 15.6629 45.8097 16.3523C46.9006 17.0341 47.7642 18.0455 48.4006 19.3864C49.0445 20.7197 49.3665 22.3561 49.3665 24.2955C49.3665 26.2121 49.0521 27.8409 48.4233 29.1818C47.7945 30.5227 46.9384 31.5455 45.8551 32.25C44.7718 32.9545 43.5445 33.3068 42.1733 33.3068C41.1733 33.3068 40.3438 33.1402 39.6847 32.8068C39.0256 32.4735 38.4953 32.072 38.0938 31.6023C37.6998 31.125 37.393 30.6742 37.1733 30.25H36.9347V33H32.8892ZM36.9233 24.2727C36.9233 25.4015 37.0824 26.3902 37.4006 27.2386C37.7263 28.0871 38.1922 28.75 38.7983 29.2273C39.4119 29.697 40.1544 29.9318 41.0256 29.9318C41.9347 29.9318 42.696 29.6894 43.3097 29.2045C43.9233 28.7121 44.3854 28.0417 44.696 27.1932C45.0142 26.3371 45.1733 25.3636 45.1733 24.2727C45.1733 23.1894 45.018 22.2273 44.7074 21.3864C44.3968 20.5455 43.9347 19.8864 43.321 19.4091C42.7074 18.9318 41.9422 18.6932 41.0256 18.6932C40.1468 18.6932 39.4006 18.9242 38.7869 19.3864C38.1733 19.8485 37.7074 20.4962 37.3892 21.3295C37.0786 22.1629 36.9233 23.1439 36.9233 24.2727ZM60.4773 33.3409C58.7727 33.3409 57.2955 32.9659 56.0455 32.2159C54.7955 31.4659 53.8258 30.4167 53.1364 29.0682C52.4545 27.7197 52.1136 26.1439 52.1136 24.3409C52.1136 22.5379 52.4545 20.9583 53.1364 19.6023C53.8258 18.2462 54.7955 17.1932 56.0455 16.4432C57.2955 15.6932 58.7727 15.3182 60.4773 15.3182C62.1818 15.3182 63.6591 15.6932 64.9091 16.4432C66.1591 17.1932 67.125 18.2462 67.8068 19.6023C68.4962 20.9583 68.8409 22.5379 68.8409 24.3409C68.8409 26.1439 68.4962 27.7197 67.8068 29.0682C67.125 30.4167 66.1591 31.4659 64.9091 32.2159C63.6591 32.9659 62.1818 33.3409 60.4773 33.3409ZM60.5 30.0455C61.4242 30.0455 62.197 29.7917 62.8182 29.2841C63.4394 28.7689 63.9015 28.0795 64.2045 27.2159C64.5152 26.3523 64.6705 25.3902 64.6705 24.3295C64.6705 23.2614 64.5152 22.2955 64.2045 21.4318C63.9015 20.5606 63.4394 19.8674 62.8182 19.3523C62.197 18.8371 61.4242 18.5795 60.5 18.5795C59.553 18.5795 58.7652 18.8371 58.1364 19.3523C57.5152 19.8674 57.0492 20.5606 56.7386 21.4318C56.4356 22.2955 56.2841 23.2614 56.2841 24.3295C56.2841 25.3902 56.4356 26.3523 56.7386 27.2159C57.0492 28.0795 57.5152 28.7689 58.1364 29.2841C58.7652 29.7917 59.553 30.0455 60.5 30.0455ZM72.3324 33V15.5455H76.321V18.4545H76.5028C76.821 17.447 77.3665 16.6705 78.1392 16.125C78.9195 15.572 79.8097 15.2955 80.8097 15.2955C81.0369 15.2955 81.2907 15.3068 81.571 15.3295C81.8589 15.3447 82.0975 15.3712 82.2869 15.4091V19.1932C82.1127 19.1326 81.8362 19.0795 81.4574 19.0341C81.0862 18.9811 80.7263 18.9545 80.3778 18.9545C79.6278 18.9545 78.9536 19.1174 78.3551 19.4432C77.7642 19.7614 77.2983 20.2045 76.9574 20.7727C76.6165 21.3409 76.446 21.9962 76.446 22.7386V33H72.3324ZM89.7301 33.3523C88.6241 33.3523 87.6278 33.1553 86.7415 32.7614C85.8627 32.3598 85.1657 31.7689 84.6506 30.9886C84.143 30.2083 83.8892 29.2462 83.8892 28.1023C83.8892 27.1174 84.071 26.303 84.4347 25.6591C84.7983 25.0152 85.2945 24.5 85.9233 24.1136C86.5521 23.7273 87.2604 23.4356 88.0483 23.2386C88.8438 23.0341 89.6657 22.8864 90.5142 22.7955C91.5369 22.6894 92.3665 22.5947 93.0028 22.5114C93.6392 22.4205 94.1013 22.2841 94.3892 22.1023C94.6847 21.9129 94.8324 21.6212 94.8324 21.2273V21.1591C94.8324 20.303 94.5786 19.6402 94.071 19.1705C93.5634 18.7008 92.8324 18.4659 91.8778 18.4659C90.8703 18.4659 90.071 18.6856 89.4801 19.125C88.8968 19.5644 88.5028 20.0833 88.2983 20.6818L84.4574 20.1364C84.7604 19.0758 85.2604 18.1894 85.9574 17.4773C86.6544 16.7576 87.5066 16.2197 88.5142 15.8636C89.5218 15.5 90.6354 15.3182 91.8551 15.3182C92.696 15.3182 93.5331 15.4167 94.3665 15.6136C95.1998 15.8106 95.9612 16.1364 96.6506 16.5909C97.34 17.0379 97.893 17.6477 98.3097 18.4205C98.7339 19.1932 98.946 20.1591 98.946 21.3182V33H94.9915V30.6023H94.8551C94.6051 31.0871 94.2528 31.5417 93.7983 31.9659C93.3513 32.3826 92.7869 32.7197 92.1051 32.9773C91.4309 33.2273 90.6392 33.3523 89.7301 33.3523ZM90.7983 30.3295C91.6241 30.3295 92.34 30.1667 92.946 29.8409C93.5521 29.5076 94.018 29.0682 94.3438 28.5227C94.6771 27.9773 94.8438 27.3826 94.8438 26.7386V24.6818C94.715 24.7879 94.4953 24.8864 94.1847 24.9773C93.8816 25.0682 93.5407 25.1477 93.1619 25.2159C92.7831 25.2841 92.4081 25.3447 92.0369 25.3977C91.6657 25.4508 91.3438 25.4962 91.071 25.5341C90.4574 25.6174 89.9081 25.7538 89.4233 25.9432C88.9384 26.1326 88.5559 26.3977 88.2756 26.7386C87.9953 27.072 87.8551 27.5038 87.8551 28.0341C87.8551 28.7917 88.1316 29.3636 88.6847 29.75C89.2377 30.1364 89.9422 30.3295 90.7983 30.3295ZM123.185 17.5795H118.935C118.813 16.8826 118.59 16.2652 118.264 15.7273C117.938 15.1818 117.533 14.7197 117.048 14.3409C116.563 13.9621 116.01 13.678 115.389 13.4886C114.776 13.2917 114.113 13.1932 113.401 13.1932C112.135 13.1932 111.014 13.5114 110.037 14.1477C109.06 14.7765 108.295 15.7008 107.741 16.9205C107.188 18.1326 106.912 19.6136 106.912 21.3636C106.912 23.1439 107.188 24.6439 107.741 25.8636C108.302 27.0758 109.067 27.9924 110.037 28.6136C111.014 29.2273 112.132 29.5341 113.389 29.5341C114.086 29.5341 114.738 29.4432 115.344 29.2614C115.957 29.072 116.507 28.7955 116.991 28.4318C117.484 28.0682 117.897 27.6212 118.23 27.0909C118.571 26.5606 118.806 25.9545 118.935 25.2727L123.185 25.2955C123.026 26.4015 122.681 27.4394 122.151 28.4091C121.628 29.3788 120.942 30.2348 120.094 30.9773C119.245 31.7121 118.253 32.2879 117.116 32.7045C115.98 33.1136 114.719 33.3182 113.332 33.3182C111.287 33.3182 109.461 32.8447 107.855 31.8977C106.249 30.9508 104.984 29.5833 104.06 27.7955C103.135 26.0076 102.673 23.8636 102.673 21.3636C102.673 18.8561 103.139 16.7121 104.071 14.9318C105.003 13.1439 106.272 11.7765 107.878 10.8295C109.484 9.88257 111.302 9.40909 113.332 9.40909C114.628 9.40909 115.832 9.59091 116.946 9.95454C118.06 10.3182 119.052 10.8523 119.923 11.5568C120.795 12.2538 121.51 13.1098 122.071 14.125C122.639 15.1326 123.01 16.2841 123.185 17.5795ZM134.477 33.3409C132.773 33.3409 131.295 32.9659 130.045 32.2159C128.795 31.4659 127.826 30.4167 127.136 29.0682C126.455 27.7197 126.114 26.1439 126.114 24.3409C126.114 22.5379 126.455 20.9583 127.136 19.6023C127.826 18.2462 128.795 17.1932 130.045 16.4432C131.295 15.6932 132.773 15.3182 134.477 15.3182C136.182 15.3182 137.659 15.6932 138.909 16.4432C140.159 17.1932 141.125 18.2462 141.807 19.6023C142.496 20.9583 142.841 22.5379 142.841 24.3409C142.841 26.1439 142.496 27.7197 141.807 29.0682C141.125 30.4167 140.159 31.4659 138.909 32.2159C137.659 32.9659 136.182 33.3409 134.477 33.3409ZM134.5 30.0455C135.424 30.0455 136.197 29.7917 136.818 29.2841C137.439 28.7689 137.902 28.0795 138.205 27.2159C138.515 26.3523 138.67 25.3902 138.67 24.3295C138.67 23.2614 138.515 22.2955 138.205 21.4318C137.902 20.5606 137.439 19.8674 136.818 19.3523C136.197 18.8371 135.424 18.5795 134.5 18.5795C133.553 18.5795 132.765 18.8371 132.136 19.3523C131.515 19.8674 131.049 20.5606 130.739 21.4318C130.436 22.2955 130.284 23.2614 130.284 24.3295C130.284 25.3902 130.436 26.3523 130.739 27.2159C131.049 28.0795 131.515 28.7689 132.136 29.2841C132.765 29.7917 133.553 30.0455 134.5 30.0455ZM152.81 33.3068C151.438 33.3068 150.211 32.9545 149.128 32.25C148.045 31.5455 147.188 30.5227 146.56 29.1818C145.931 27.8409 145.616 26.2121 145.616 24.2955C145.616 22.3561 145.935 20.7197 146.571 19.3864C147.215 18.0455 148.082 17.0341 149.173 16.3523C150.264 15.6629 151.48 15.3182 152.821 15.3182C153.844 15.3182 154.685 15.4924 155.344 15.8409C156.003 16.1818 156.526 16.5947 156.912 17.0795C157.298 17.5568 157.598 18.0076 157.81 18.4318H157.98V9.72727H162.105V33H158.06V30.25H157.81C157.598 30.6742 157.291 31.125 156.889 31.6023C156.488 32.072 155.957 32.4735 155.298 32.8068C154.639 33.1402 153.81 33.3068 152.81 33.3068ZM153.957 29.9318C154.829 29.9318 155.571 29.697 156.185 29.2273C156.798 28.75 157.264 28.0871 157.582 27.2386C157.901 26.3902 158.06 25.4015 158.06 24.2727C158.06 23.1439 157.901 22.1629 157.582 21.3295C157.272 20.4962 156.81 19.8485 156.196 19.3864C155.59 18.9242 154.844 18.6932 153.957 18.6932C153.041 18.6932 152.276 18.9318 151.662 19.4091C151.048 19.8864 150.586 20.5455 150.276 21.3864C149.965 22.2273 149.81 23.1894 149.81 24.2727C149.81 25.3636 149.965 26.3371 150.276 27.1932C150.594 28.0417 151.06 28.7121 151.673 29.2045C152.295 29.6894 153.056 29.9318 153.957 29.9318ZM171.511 33.3523C170.405 33.3523 169.409 33.1553 168.523 32.7614C167.644 32.3598 166.947 31.7689 166.432 30.9886C165.924 30.2083 165.67 29.2462 165.67 28.1023C165.67 27.1174 165.852 26.303 166.216 25.6591C166.58 25.0152 167.076 24.5 167.705 24.1136C168.333 23.7273 169.042 23.4356 169.83 23.2386C170.625 23.0341 171.447 22.8864 172.295 22.7955C173.318 22.6894 174.148 22.5947 174.784 22.5114C175.42 22.4205 175.883 22.2841 176.17 22.1023C176.466 21.9129 176.614 21.6212 176.614 21.2273V21.1591C176.614 20.303 176.36 19.6402 175.852 19.1705C175.345 18.7008 174.614 18.4659 173.659 18.4659C172.652 18.4659 171.852 18.6856 171.261 19.125C170.678 19.5644 170.284 20.0833 170.08 20.6818L166.239 20.1364C166.542 19.0758 167.042 18.1894 167.739 17.4773C168.436 16.7576 169.288 16.2197 170.295 15.8636C171.303 15.5 172.417 15.3182 173.636 15.3182C174.477 15.3182 175.314 15.4167 176.148 15.6136C176.981 15.8106 177.742 16.1364 178.432 16.5909C179.121 17.0379 179.674 17.6477 180.091 18.4205C180.515 19.1932 180.727 20.1591 180.727 21.3182V33H176.773V30.6023H176.636C176.386 31.0871 176.034 31.5417 175.58 31.9659C175.133 32.3826 174.568 32.7197 173.886 32.9773C173.212 33.2273 172.42 33.3523 171.511 33.3523ZM172.58 30.3295C173.405 30.3295 174.121 30.1667 174.727 29.8409C175.333 29.5076 175.799 29.0682 176.125 28.5227C176.458 27.9773 176.625 27.3826 176.625 26.7386V24.6818C176.496 24.7879 176.277 24.8864 175.966 24.9773C175.663 25.0682 175.322 25.1477 174.943 25.2159C174.564 25.2841 174.189 25.3447 173.818 25.3977C173.447 25.4508 173.125 25.4962 172.852 25.5341C172.239 25.6174 171.689 25.7538 171.205 25.9432C170.72 26.1326 170.337 26.3977 170.057 26.7386C169.777 27.072 169.636 27.5038 169.636 28.0341C169.636 28.7917 169.913 29.3636 170.466 29.75C171.019 30.1364 171.723 30.3295 172.58 30.3295ZM184.864 33V15.5455H188.852V18.4545H189.034C189.352 17.447 189.898 16.6705 190.67 16.125C191.451 15.572 192.341 15.2955 193.341 15.2955C193.568 15.2955 193.822 15.3068 194.102 15.3295C194.39 15.3447 194.629 15.3712 194.818 15.4091V19.1932C194.644 19.1326 194.367 19.0795 193.989 19.0341C193.617 18.9811 193.258 18.9545 192.909 18.9545C192.159 18.9545 191.485 19.1174 190.886 19.4432C190.295 19.7614 189.83 20.2045 189.489 20.7727C189.148 21.3409 188.977 21.9962 188.977 22.7386V33H184.864ZM403.043 64L405.668 48H407.23L404.605 64H403.043ZM395.762 59.5625L396.012 58H407.949L407.699 59.5625H395.762ZM397.418 64L400.043 48H401.605L398.98 64H397.418ZM396.699 54L396.949 52.4375H408.887L408.637 54H396.699ZM411.203 64V48H413.047V53.9062H413.203C413.339 53.6979 413.526 53.4323 413.766 53.1094C414.01 52.7812 414.359 52.4896 414.813 52.2344C415.271 51.974 415.891 51.8438 416.672 51.8438C417.682 51.8438 418.573 52.0964 419.344 52.6016C420.115 53.1068 420.716 53.8229 421.148 54.75C421.581 55.6771 421.797 56.7708 421.797 58.0313C421.797 59.3021 421.581 60.4036 421.148 61.3359C420.716 62.263 420.117 62.9818 419.352 63.4922C418.586 63.9974 417.703 64.25 416.703 64.25C415.932 64.25 415.315 64.1224 414.852 63.8672C414.388 63.6068 414.031 63.3125 413.781 62.9844C413.531 62.651 413.339 62.375 413.203 62.1562H412.984V64H411.203ZM413.016 58C413.016 58.9062 413.148 59.7057 413.414 60.3984C413.68 61.0859 414.068 61.625 414.578 62.0156C415.089 62.401 415.714 62.5938 416.453 62.5938C417.224 62.5938 417.867 62.3906 418.383 61.9844C418.904 61.5729 419.294 61.0208 419.555 60.3281C419.82 59.6302 419.953 58.8542 419.953 58C419.953 57.1562 419.823 56.3958 419.563 55.7187C419.307 55.0365 418.919 54.4974 418.398 54.1016C417.883 53.7005 417.234 53.5 416.453 53.5C415.703 53.5 415.073 53.6901 414.563 54.0703C414.052 54.4453 413.667 54.9714 413.406 55.6484C413.146 56.3203 413.016 57.1042 413.016 58ZM429.492 64.25C428.409 64.25 427.458 63.9922 426.641 63.4766C425.828 62.9609 425.193 62.2396 424.734 61.3125C424.281 60.3854 424.055 59.3021 424.055 58.0625C424.055 56.8125 424.281 55.7214 424.734 54.7891C425.193 53.8568 425.828 53.1328 426.641 52.6172C427.458 52.1016 428.409 51.8438 429.492 51.8438C430.576 51.8438 431.523 52.1016 432.336 52.6172C433.154 53.1328 433.789 53.8568 434.242 54.7891C434.701 55.7214 434.93 56.8125 434.93 58.0625C434.93 59.3021 434.701 60.3854 434.242 61.3125C433.789 62.2396 433.154 62.9609 432.336 63.4766C431.523 63.9922 430.576 64.25 429.492 64.25ZM429.492 62.5938C430.315 62.5938 430.992 62.3828 431.523 61.9609C432.055 61.5391 432.448 60.9844 432.703 60.2969C432.958 59.6094 433.086 58.8646 433.086 58.0625C433.086 57.2604 432.958 56.513 432.703 55.8203C432.448 55.1276 432.055 54.5677 431.523 54.1406C430.992 53.7135 430.315 53.5 429.492 53.5C428.669 53.5 427.992 53.7135 427.461 54.1406C426.93 54.5677 426.536 55.1276 426.281 55.8203C426.026 56.513 425.898 57.2604 425.898 58.0625C425.898 58.8646 426.026 59.6094 426.281 60.2969C426.536 60.9844 426.93 61.5391 427.461 61.9609C427.992 62.3828 428.669 62.5938 429.492 62.5938ZM437.744 64V52H439.525V53.8125H439.65C439.869 53.2188 440.265 52.737 440.838 52.3672C441.411 51.9974 442.057 51.8125 442.775 51.8125C442.911 51.8125 443.08 51.8151 443.283 51.8203C443.486 51.8255 443.64 51.8333 443.744 51.8438V53.7187C443.682 53.7031 443.538 53.6797 443.314 53.6484C443.096 53.612 442.864 53.5937 442.619 53.5937C442.036 53.5937 441.515 53.7161 441.057 53.9609C440.604 54.2005 440.244 54.5339 439.979 54.9609C439.718 55.3828 439.588 55.8646 439.588 56.4062V64H437.744ZM449.461 64.2813C448.701 64.2813 448.01 64.138 447.391 63.8516C446.771 63.5599 446.279 63.1406 445.914 62.5938C445.549 62.0417 445.367 61.375 445.367 60.5937C445.367 59.9062 445.503 59.349 445.773 58.9219C446.044 58.4896 446.406 58.151 446.859 57.9062C447.312 57.6615 447.813 57.4792 448.359 57.3594C448.911 57.2344 449.466 57.1354 450.023 57.0625C450.753 56.9687 451.344 56.8984 451.797 56.8516C452.255 56.7995 452.589 56.7135 452.797 56.5937C453.01 56.474 453.117 56.2656 453.117 55.9687V55.9062C453.117 55.1354 452.906 54.5365 452.484 54.1094C452.068 53.6823 451.435 53.4687 450.586 53.4687C449.706 53.4687 449.016 53.6615 448.516 54.0469C448.016 54.4323 447.664 54.8437 447.461 55.2812L445.711 54.6562C446.023 53.9271 446.44 53.3594 446.961 52.9531C447.487 52.5417 448.06 52.2552 448.68 52.0937C449.305 51.9271 449.919 51.8438 450.523 51.8438C450.909 51.8438 451.352 51.8906 451.852 51.9844C452.357 52.0729 452.844 52.2578 453.313 52.5391C453.786 52.8203 454.18 53.2448 454.492 53.8125C454.805 54.3802 454.961 55.1406 454.961 56.0938V64H453.117V62.375H453.023C452.898 62.6354 452.69 62.9141 452.398 63.2109C452.107 63.5078 451.719 63.7604 451.234 63.9687C450.75 64.1771 450.159 64.2813 449.461 64.2813ZM449.742 62.625C450.471 62.625 451.086 62.4818 451.586 62.1953C452.091 61.9089 452.471 61.5391 452.727 61.0859C452.987 60.6328 453.117 60.1562 453.117 59.6562V57.9687C453.039 58.0625 452.867 58.1484 452.602 58.2266C452.341 58.2995 452.039 58.3646 451.695 58.4219C451.357 58.474 451.026 58.5208 450.703 58.5625C450.385 58.599 450.128 58.6302 449.93 58.6562C449.451 58.7187 449.003 58.8203 448.586 58.9609C448.174 59.0964 447.841 59.3021 447.586 59.5781C447.336 59.849 447.211 60.2187 447.211 60.6875C447.211 61.3281 447.448 61.8125 447.922 62.1406C448.401 62.4635 449.008 62.625 449.742 62.625ZM471.451 53H469.514C469.399 52.4427 469.199 51.9531 468.912 51.5312C468.631 51.1094 468.287 50.7552 467.881 50.4688C467.48 50.1771 467.035 49.9583 466.545 49.8125C466.055 49.6667 465.545 49.5937 465.014 49.5937C464.045 49.5937 463.167 49.8385 462.381 50.3281C461.6 50.8177 460.977 51.5391 460.514 52.4922C460.055 53.4453 459.826 54.6146 459.826 56C459.826 57.3854 460.055 58.5547 460.514 59.5078C460.977 60.4609 461.6 61.1823 462.381 61.6719C463.167 62.1615 464.045 62.4062 465.014 62.4062C465.545 62.4062 466.055 62.3333 466.545 62.1875C467.035 62.0417 467.48 61.8255 467.881 61.5391C468.287 61.2474 468.631 60.8906 468.912 60.4687C469.199 60.0417 469.399 59.5521 469.514 59H471.451C471.305 59.8177 471.04 60.5495 470.654 61.1953C470.269 61.8411 469.79 62.3906 469.217 62.8437C468.644 63.2917 468.001 63.6328 467.287 63.8672C466.579 64.1016 465.821 64.2187 465.014 64.2187C463.649 64.2187 462.436 63.8854 461.373 63.2188C460.311 62.5521 459.475 61.6042 458.865 60.375C458.256 59.1458 457.951 57.6875 457.951 56C457.951 54.3125 458.256 52.8542 458.865 51.625C459.475 50.3958 460.311 49.4479 461.373 48.7812C462.436 48.1146 463.649 47.7812 465.014 47.7812C465.821 47.7812 466.579 47.8984 467.287 48.1328C468.001 48.3672 468.644 48.7109 469.217 49.1641C469.79 49.612 470.269 50.1589 470.654 50.8047C471.04 51.4453 471.305 52.1771 471.451 53ZM479.207 64.25C478.124 64.25 477.173 63.9922 476.355 63.4766C475.543 62.9609 474.908 62.2396 474.449 61.3125C473.996 60.3854 473.77 59.3021 473.77 58.0625C473.77 56.8125 473.996 55.7214 474.449 54.7891C474.908 53.8568 475.543 53.1328 476.355 52.6172C477.173 52.1016 478.124 51.8438 479.207 51.8438C480.29 51.8438 481.238 52.1016 482.051 52.6172C482.868 53.1328 483.504 53.8568 483.957 54.7891C484.415 55.7214 484.645 56.8125 484.645 58.0625C484.645 59.3021 484.415 60.3854 483.957 61.3125C483.504 62.2396 482.868 62.9609 482.051 63.4766C481.238 63.9922 480.29 64.25 479.207 64.25ZM479.207 62.5938C480.03 62.5938 480.707 62.3828 481.238 61.9609C481.77 61.5391 482.163 60.9844 482.418 60.2969C482.673 59.6094 482.801 58.8646 482.801 58.0625C482.801 57.2604 482.673 56.513 482.418 55.8203C482.163 55.1276 481.77 54.5677 481.238 54.1406C480.707 53.7135 480.03 53.5 479.207 53.5C478.384 53.5 477.707 53.7135 477.176 54.1406C476.645 54.5677 476.251 55.1276 475.996 55.8203C475.741 56.513 475.613 57.2604 475.613 58.0625C475.613 58.8646 475.741 59.6094 475.996 60.2969C476.251 60.9844 476.645 61.5391 477.176 61.9609C477.707 62.3828 478.384 62.5938 479.207 62.5938ZM491.99 64.25C490.99 64.25 490.107 63.9974 489.342 63.4922C488.576 62.9818 487.977 62.263 487.545 61.3359C487.113 60.4036 486.896 59.3021 486.896 58.0313C486.896 56.7708 487.113 55.6771 487.545 54.75C487.977 53.8229 488.579 53.1068 489.35 52.6016C490.12 52.0964 491.011 51.8438 492.021 51.8438C492.803 51.8438 493.42 51.974 493.873 52.2344C494.331 52.4896 494.68 52.7812 494.92 53.1094C495.165 53.4323 495.355 53.6979 495.49 53.9062H495.646V48H497.49V64H495.709V62.1562H495.49C495.355 62.375 495.162 62.651 494.912 62.9844C494.662 63.3125 494.305 63.6068 493.842 63.8672C493.378 64.1224 492.761 64.25 491.99 64.25ZM492.24 62.5938C492.98 62.5938 493.605 62.401 494.115 62.0156C494.626 61.625 495.014 61.0859 495.279 60.3984C495.545 59.7057 495.678 58.9062 495.678 58C495.678 57.1042 495.548 56.3203 495.287 55.6484C495.027 54.9714 494.641 54.4453 494.131 54.0703C493.62 53.6901 492.99 53.5 492.24 53.5C491.459 53.5 490.808 53.7005 490.287 54.1016C489.771 54.4974 489.383 55.0365 489.123 55.7187C488.868 56.3958 488.74 57.1562 488.74 58C488.74 58.8542 488.87 59.6302 489.131 60.3281C489.396 61.0208 489.787 61.5729 490.303 61.9844C490.824 62.3906 491.469 62.5938 492.24 62.5938ZM504.654 64.2813C503.894 64.2813 503.204 64.138 502.584 63.8516C501.964 63.5599 501.472 63.1406 501.107 62.5938C500.743 62.0417 500.561 61.375 500.561 60.5937C500.561 59.9062 500.696 59.349 500.967 58.9219C501.238 58.4896 501.6 58.151 502.053 57.9062C502.506 57.6615 503.006 57.4792 503.553 57.3594C504.105 57.2344 504.66 57.1354 505.217 57.0625C505.946 56.9687 506.537 56.8984 506.99 56.8516C507.449 56.7995 507.782 56.7135 507.99 56.5937C508.204 56.474 508.311 56.2656 508.311 55.9687V55.9062C508.311 55.1354 508.1 54.5365 507.678 54.1094C507.261 53.6823 506.628 53.4687 505.779 53.4687C504.899 53.4687 504.209 53.6615 503.709 54.0469C503.209 54.4323 502.857 54.8437 502.654 55.2812L500.904 54.6562C501.217 53.9271 501.633 53.3594 502.154 52.9531C502.68 52.5417 503.253 52.2552 503.873 52.0937C504.498 51.9271 505.113 51.8438 505.717 51.8438C506.102 51.8438 506.545 51.8906 507.045 51.9844C507.55 52.0729 508.037 52.2578 508.506 52.5391C508.98 52.8203 509.373 53.2448 509.686 53.8125C509.998 54.3802 510.154 55.1406 510.154 56.0938V64H508.311V62.375H508.217C508.092 62.6354 507.883 62.9141 507.592 63.2109C507.3 63.5078 506.912 63.7604 506.428 63.9687C505.943 64.1771 505.352 64.2813 504.654 64.2813ZM504.936 62.625C505.665 62.625 506.279 62.4818 506.779 62.1953C507.285 61.9089 507.665 61.5391 507.92 61.0859C508.18 60.6328 508.311 60.1562 508.311 59.6562V57.9687C508.232 58.0625 508.061 58.1484 507.795 58.2266C507.535 58.2995 507.232 58.3646 506.889 58.4219C506.55 58.474 506.219 58.5208 505.896 58.5625C505.579 58.599 505.321 58.6302 505.123 58.6562C504.644 58.7187 504.196 58.8203 503.779 58.9609C503.368 59.0964 503.035 59.3021 502.779 59.5781C502.529 59.849 502.404 60.2187 502.404 60.6875C502.404 61.3281 502.641 61.8125 503.115 62.1406C503.594 62.4635 504.201 62.625 504.936 62.625ZM513.52 64V52H515.301V53.8125H515.426C515.645 53.2188 516.04 52.737 516.613 52.3672C517.186 51.9974 517.832 51.8125 518.551 51.8125C518.686 51.8125 518.855 51.8151 519.059 51.8203C519.262 51.8255 519.415 51.8333 519.52 51.8438V53.7187C519.457 53.7031 519.314 53.6797 519.09 53.6484C518.871 53.612 518.639 53.5937 518.395 53.5937C517.811 53.5937 517.29 53.7161 516.832 53.9609C516.379 54.2005 516.02 54.5339 515.754 54.9609C515.493 55.3828 515.363 55.8646 515.363 56.4062V64H513.52ZM521.674 64.125C521.288 64.125 520.958 63.987 520.682 63.7109C520.406 63.4349 520.268 63.1042 520.268 62.7187C520.268 62.3333 520.406 62.0026 520.682 61.7266C520.958 61.4505 521.288 61.3125 521.674 61.3125C522.059 61.3125 522.39 61.4505 522.666 61.7266C522.942 62.0026 523.08 62.3333 523.08 62.7187C523.08 62.974 523.015 63.2083 522.885 63.4219C522.76 63.6354 522.59 63.8073 522.377 63.9375C522.169 64.0625 521.934 64.125 521.674 64.125Z" fill="#C6ADFF"/>
<path d="M216.614 25.6591V15.5455H220.727V33H216.739V29.8977H216.557C216.163 30.875 215.515 31.6742 214.614 32.2955C213.72 32.9167 212.617 33.2273 211.307 33.2273C210.163 33.2273 209.152 32.9735 208.273 32.4659C207.402 31.9508 206.72 31.2045 206.227 30.2273C205.735 29.2424 205.489 28.053 205.489 26.6591V15.5455H209.602V26.0227C209.602 27.1288 209.905 28.0076 210.511 28.6591C211.117 29.3106 211.913 29.6364 212.898 29.6364C213.504 29.6364 214.091 29.4886 214.659 29.1932C215.227 28.8977 215.693 28.4583 216.057 27.875C216.428 27.2841 216.614 26.5455 216.614 25.6591ZM224.957 33V15.5455H228.889V18.5114H229.094C229.457 17.5114 230.06 16.7311 230.901 16.1705C231.741 15.6023 232.745 15.3182 233.912 15.3182C235.094 15.3182 236.09 15.6061 236.901 16.1818C237.719 16.75 238.295 17.5265 238.628 18.5114H238.81C239.196 17.5417 239.848 16.7689 240.764 16.1932C241.688 15.6098 242.783 15.3182 244.048 15.3182C245.654 15.3182 246.965 15.8258 247.98 16.8409C248.995 17.8561 249.503 19.3371 249.503 21.2841V33H245.378V21.9205C245.378 20.8371 245.09 20.0455 244.514 19.5455C243.938 19.0379 243.234 18.7841 242.401 18.7841C241.408 18.7841 240.632 19.0947 240.071 19.7159C239.518 20.3295 239.241 21.1288 239.241 22.1136V33H235.207V21.75C235.207 20.8485 234.935 20.1288 234.389 19.5909C233.851 19.053 233.147 18.7841 232.276 18.7841C231.685 18.7841 231.147 18.9356 230.662 19.2386C230.177 19.5341 229.791 19.9545 229.503 20.5C229.215 21.0379 229.071 21.6667 229.071 22.3864V33H224.957ZM269.227 33.3409C267.485 33.3409 265.989 32.9583 264.739 32.1932C263.496 31.428 262.538 30.3712 261.864 29.0227C261.197 27.6667 260.864 26.1061 260.864 24.3409C260.864 22.5682 261.205 21.0038 261.886 19.6477C262.568 18.2841 263.53 17.2235 264.773 16.4659C266.023 15.7008 267.5 15.3182 269.205 15.3182C270.621 15.3182 271.875 15.5795 272.966 16.1023C274.064 16.6174 274.939 17.3485 275.591 18.2955C276.242 19.2348 276.614 20.3333 276.705 21.5909H272.773C272.614 20.75 272.235 20.0492 271.636 19.4886C271.045 18.9205 270.254 18.6364 269.261 18.6364C268.42 18.6364 267.682 18.8636 267.045 19.3182C266.409 19.7652 265.913 20.4091 265.557 21.25C265.208 22.0909 265.034 23.0985 265.034 24.2727C265.034 25.4621 265.208 26.4848 265.557 27.3409C265.905 28.1894 266.394 28.8447 267.023 29.3068C267.659 29.7614 268.405 29.9886 269.261 29.9886C269.867 29.9886 270.409 29.875 270.886 29.6477C271.371 29.4129 271.777 29.0758 272.102 28.6364C272.428 28.197 272.652 27.6629 272.773 27.0341H276.705C276.606 28.2689 276.242 29.3636 275.614 30.3182C274.985 31.2652 274.129 32.0076 273.045 32.5455C271.962 33.0758 270.689 33.3409 269.227 33.3409ZM285.105 33.3523C283.999 33.3523 283.003 33.1553 282.116 32.7614C281.238 32.3598 280.541 31.7689 280.026 30.9886C279.518 30.2083 279.264 29.2462 279.264 28.1023C279.264 27.1174 279.446 26.303 279.81 25.6591C280.173 25.0152 280.67 24.5 281.298 24.1136C281.927 23.7273 282.635 23.4356 283.423 23.2386C284.219 23.0341 285.041 22.8864 285.889 22.7955C286.912 22.6894 287.741 22.5947 288.378 22.5114C289.014 22.4205 289.476 22.2841 289.764 22.1023C290.06 21.9129 290.207 21.6212 290.207 21.2273V21.1591C290.207 20.303 289.954 19.6402 289.446 19.1705C288.938 18.7008 288.207 18.4659 287.253 18.4659C286.245 18.4659 285.446 18.6856 284.855 19.125C284.272 19.5644 283.878 20.0833 283.673 20.6818L279.832 20.1364C280.135 19.0758 280.635 18.1894 281.332 17.4773C282.029 16.7576 282.882 16.2197 283.889 15.8636C284.897 15.5 286.01 15.3182 287.23 15.3182C288.071 15.3182 288.908 15.4167 289.741 15.6136C290.575 15.8106 291.336 16.1364 292.026 16.5909C292.715 17.0379 293.268 17.6477 293.685 18.4205C294.109 19.1932 294.321 20.1591 294.321 21.3182V33H290.366V30.6023H290.23C289.98 31.0871 289.628 31.5417 289.173 31.9659C288.726 32.3826 288.162 32.7197 287.48 32.9773C286.806 33.2273 286.014 33.3523 285.105 33.3523ZM286.173 30.3295C286.999 30.3295 287.715 30.1667 288.321 29.8409C288.927 29.5076 289.393 29.0682 289.719 28.5227C290.052 27.9773 290.219 27.3826 290.219 26.7386V24.6818C290.09 24.7879 289.87 24.8864 289.56 24.9773C289.257 25.0682 288.916 25.1477 288.537 25.2159C288.158 25.2841 287.783 25.3447 287.412 25.3977C287.041 25.4508 286.719 25.4962 286.446 25.5341C285.832 25.6174 285.283 25.7538 284.798 25.9432C284.313 26.1326 283.931 26.3977 283.651 26.7386C283.37 27.072 283.23 27.5038 283.23 28.0341C283.23 28.7917 283.507 29.3636 284.06 29.75C284.613 30.1364 285.317 30.3295 286.173 30.3295ZM298.457 33V15.5455H302.446V18.4545H302.628C302.946 17.447 303.491 16.6705 304.264 16.125C305.045 15.572 305.935 15.2955 306.935 15.2955C307.162 15.2955 307.416 15.3068 307.696 15.3295C307.984 15.3447 308.223 15.3712 308.412 15.4091V19.1932C308.238 19.1326 307.961 19.0795 307.582 19.0341C307.211 18.9811 306.851 18.9545 306.503 18.9545C305.753 18.9545 305.079 19.1174 304.48 19.4432C303.889 19.7614 303.423 20.2045 303.082 20.7727C302.741 21.3409 302.571 21.9962 302.571 22.7386V33H298.457ZM320.798 15.5455V18.7273H310.764V15.5455H320.798ZM313.241 11.3636H317.355V27.75C317.355 28.303 317.438 28.7273 317.605 29.0227C317.779 29.3106 318.007 29.5076 318.287 29.6136C318.567 29.7197 318.878 29.7727 319.219 29.7727C319.476 29.7727 319.711 29.7538 319.923 29.7159C320.143 29.678 320.31 29.6439 320.423 29.6136L321.116 32.8295C320.897 32.9053 320.582 32.9886 320.173 33.0795C319.772 33.1705 319.279 33.2235 318.696 33.2386C317.666 33.2689 316.738 33.1136 315.912 32.7727C315.086 32.4242 314.431 31.8864 313.946 31.1591C313.469 30.4318 313.234 29.5227 313.241 28.4318V11.3636ZM329.261 33.3523C328.155 33.3523 327.159 33.1553 326.273 32.7614C325.394 32.3598 324.697 31.7689 324.182 30.9886C323.674 30.2083 323.42 29.2462 323.42 28.1023C323.42 27.1174 323.602 26.303 323.966 25.6591C324.33 25.0152 324.826 24.5 325.455 24.1136C326.083 23.7273 326.792 23.4356 327.58 23.2386C328.375 23.0341 329.197 22.8864 330.045 22.7955C331.068 22.6894 331.898 22.5947 332.534 22.5114C333.17 22.4205 333.633 22.2841 333.92 22.1023C334.216 21.9129 334.364 21.6212 334.364 21.2273V21.1591C334.364 20.303 334.11 19.6402 333.602 19.1705C333.095 18.7008 332.364 18.4659 331.409 18.4659C330.402 18.4659 329.602 18.6856 329.011 19.125C328.428 19.5644 328.034 20.0833 327.83 20.6818L323.989 20.1364C324.292 19.0758 324.792 18.1894 325.489 17.4773C326.186 16.7576 327.038 16.2197 328.045 15.8636C329.053 15.5 330.167 15.3182 331.386 15.3182C332.227 15.3182 333.064 15.4167 333.898 15.6136C334.731 15.8106 335.492 16.1364 336.182 16.5909C336.871 17.0379 337.424 17.6477 337.841 18.4205C338.265 19.1932 338.477 20.1591 338.477 21.3182V33H334.523V30.6023H334.386C334.136 31.0871 333.784 31.5417 333.33 31.9659C332.883 32.3826 332.318 32.7197 331.636 32.9773C330.962 33.2273 330.17 33.3523 329.261 33.3523ZM330.33 30.3295C331.155 30.3295 331.871 30.1667 332.477 29.8409C333.083 29.5076 333.549 29.0682 333.875 28.5227C334.208 27.9773 334.375 27.3826 334.375 26.7386V24.6818C334.246 24.7879 334.027 24.8864 333.716 24.9773C333.413 25.0682 333.072 25.1477 332.693 25.2159C332.314 25.2841 331.939 25.3447 331.568 25.3977C331.197 25.4508 330.875 25.4962 330.602 25.5341C329.989 25.6174 329.439 25.7538 328.955 25.9432C328.47 26.1326 328.087 26.3977 327.807 26.7386C327.527 27.072 327.386 27.5038 327.386 28.0341C327.386 28.7917 327.663 29.3636 328.216 29.75C328.769 30.1364 329.473 30.3295 330.33 30.3295ZM328.227 13.4205L325.739 13.3636C325.739 12.0152 326.087 10.9583 326.784 10.1932C327.481 9.42803 328.341 9.04545 329.364 9.04545C329.856 9.04545 330.284 9.12879 330.648 9.29545C331.011 9.45454 331.345 9.64015 331.648 9.85227C331.958 10.0644 332.261 10.2538 332.557 10.4205C332.852 10.5795 333.178 10.6591 333.534 10.6591C333.966 10.6591 334.307 10.4962 334.557 10.1705C334.814 9.8447 334.947 9.42803 334.955 8.92045L337.398 9.02273C337.39 10.3788 337.038 11.4318 336.341 12.1818C335.644 12.9242 334.788 13.2992 333.773 13.3068C333.227 13.3144 332.769 13.2348 332.398 13.0682C332.027 12.9015 331.701 12.7121 331.42 12.5C331.148 12.2879 330.871 12.1023 330.591 11.9432C330.311 11.7765 329.981 11.6932 329.602 11.6932C329.201 11.6932 328.871 11.8523 328.614 12.1705C328.356 12.4886 328.227 12.9053 328.227 13.4205ZM350.227 33.3409C348.523 33.3409 347.045 32.9659 345.795 32.2159C344.545 31.4659 343.576 30.4167 342.886 29.0682C342.205 27.7197 341.864 26.1439 341.864 24.3409C341.864 22.5379 342.205 20.9583 342.886 19.6023C343.576 18.2462 344.545 17.1932 345.795 16.4432C347.045 15.6932 348.523 15.3182 350.227 15.3182C351.932 15.3182 353.409 15.6932 354.659 16.4432C355.909 17.1932 356.875 18.2462 357.557 19.6023C358.246 20.9583 358.591 22.5379 358.591 24.3409C358.591 26.1439 358.246 27.7197 357.557 29.0682C356.875 30.4167 355.909 31.4659 354.659 32.2159C353.409 32.9659 351.932 33.3409 350.227 33.3409ZM350.25 30.0455C351.174 30.0455 351.947 29.7917 352.568 29.2841C353.189 28.7689 353.652 28.0795 353.955 27.2159C354.265 26.3523 354.42 25.3902 354.42 24.3295C354.42 23.2614 354.265 22.2955 353.955 21.4318C353.652 20.5606 353.189 19.8674 352.568 19.3523C351.947 18.8371 351.174 18.5795 350.25 18.5795C349.303 18.5795 348.515 18.8371 347.886 19.3523C347.265 19.8674 346.799 20.5606 346.489 21.4318C346.186 22.2955 346.034 23.2614 346.034 24.3295C346.034 25.3902 346.186 26.3523 346.489 27.2159C346.799 28.0795 347.265 28.7689 347.886 29.2841C348.515 29.7917 349.303 30.0455 350.25 30.0455ZM376.497 33.3068C375.126 33.3068 373.899 32.9545 372.815 32.25C371.732 31.5455 370.876 30.5227 370.247 29.1818C369.618 27.8409 369.304 26.2121 369.304 24.2955C369.304 22.3561 369.622 20.7197 370.259 19.3864C370.902 18.0455 371.77 17.0341 372.861 16.3523C373.952 15.6629 375.168 15.3182 376.509 15.3182C377.531 15.3182 378.372 15.4924 379.031 15.8409C379.69 16.1818 380.213 16.5947 380.599 17.0795C380.986 17.5568 381.285 18.0076 381.497 18.4318H381.668V9.72727H385.793V33H381.747V30.25H381.497C381.285 30.6742 380.978 31.125 380.577 31.6023C380.175 32.072 379.645 32.4735 378.986 32.8068C378.327 33.1402 377.497 33.3068 376.497 33.3068ZM377.645 29.9318C378.516 29.9318 379.259 29.697 379.872 29.2273C380.486 28.75 380.952 28.0871 381.27 27.2386C381.588 26.3902 381.747 25.4015 381.747 24.2727C381.747 23.1439 381.588 22.1629 381.27 21.3295C380.959 20.4962 380.497 19.8485 379.884 19.3864C379.277 18.9242 378.531 18.6932 377.645 18.6932C376.728 18.6932 375.963 18.9318 375.349 19.4091C374.736 19.8864 374.274 20.5455 373.963 21.3864C373.652 22.2273 373.497 23.1894 373.497 24.2727C373.497 25.3636 373.652 26.3371 373.963 27.1932C374.281 28.0417 374.747 28.7121 375.361 29.2045C375.982 29.6894 376.743 29.9318 377.645 29.9318ZM397.903 33.3409C396.153 33.3409 394.642 32.9773 393.369 32.25C392.104 31.5152 391.131 30.4773 390.449 29.1364C389.767 27.7879 389.426 26.2008 389.426 24.375C389.426 22.5795 389.767 21.0038 390.449 19.6477C391.138 18.2841 392.1 17.2235 393.335 16.4659C394.57 15.7008 396.021 15.3182 397.688 15.3182C398.763 15.3182 399.778 15.4924 400.733 15.8409C401.695 16.1818 402.544 16.7121 403.278 17.4318C404.021 18.1515 404.604 19.0682 405.028 20.1818C405.453 21.2879 405.665 22.6061 405.665 24.1364V25.3977H391.358V22.625H401.722C401.714 21.8371 401.544 21.1364 401.21 20.5227C400.877 19.9015 400.411 19.4129 399.812 19.0568C399.222 18.7008 398.532 18.5227 397.744 18.5227C396.903 18.5227 396.165 18.7273 395.528 19.1364C394.892 19.5379 394.396 20.0682 394.04 20.7273C393.691 21.3788 393.513 22.0947 393.506 22.875V25.2955C393.506 26.3106 393.691 27.1818 394.062 27.9091C394.434 28.6288 394.953 29.1818 395.619 29.5682C396.286 29.947 397.066 30.1364 397.96 30.1364C398.559 30.1364 399.1 30.053 399.585 29.8864C400.07 29.7121 400.491 29.4583 400.847 29.125C401.203 28.7917 401.472 28.3788 401.653 27.8864L405.494 28.3182C405.252 29.3333 404.79 30.2197 404.108 30.9773C403.434 31.7273 402.57 32.3106 401.517 32.7273C400.464 33.1364 399.259 33.3409 397.903 33.3409ZM424.81 33.3409C423.06 33.3409 421.548 32.9773 420.276 32.25C419.01 31.5152 418.037 30.4773 417.355 29.1364C416.673 27.7879 416.332 26.2008 416.332 24.375C416.332 22.5795 416.673 21.0038 417.355 19.6477C418.045 18.2841 419.007 17.2235 420.241 16.4659C421.476 15.7008 422.927 15.3182 424.594 15.3182C425.67 15.3182 426.685 15.4924 427.639 15.8409C428.601 16.1818 429.45 16.7121 430.185 17.4318C430.927 18.1515 431.51 19.0682 431.935 20.1818C432.359 21.2879 432.571 22.6061 432.571 24.1364V25.3977H418.264V22.625H428.628C428.62 21.8371 428.45 21.1364 428.116 20.5227C427.783 19.9015 427.317 19.4129 426.719 19.0568C426.128 18.7008 425.438 18.5227 424.651 18.5227C423.81 18.5227 423.071 18.7273 422.435 19.1364C421.798 19.5379 421.302 20.0682 420.946 20.7273C420.598 21.3788 420.42 22.0947 420.412 22.875V25.2955C420.412 26.3106 420.598 27.1818 420.969 27.9091C421.34 28.6288 421.859 29.1818 422.526 29.5682C423.192 29.947 423.973 30.1364 424.866 30.1364C425.465 30.1364 426.007 30.053 426.491 29.8864C426.976 29.7121 427.397 29.4583 427.753 29.125C428.109 28.7917 428.378 28.3788 428.56 27.8864L432.401 28.3182C432.158 29.3333 431.696 30.2197 431.014 30.9773C430.34 31.7273 429.476 32.3106 428.423 32.7273C427.37 33.1364 426.166 33.3409 424.81 33.3409ZM436.051 33V15.5455H439.983V18.5114H440.188C440.551 17.5114 441.153 16.7311 441.994 16.1705C442.835 15.6023 443.839 15.3182 445.006 15.3182C446.188 15.3182 447.184 15.6061 447.994 16.1818C448.813 16.75 449.388 17.5265 449.722 18.5114H449.903C450.29 17.5417 450.941 16.7689 451.858 16.1932C452.782 15.6098 453.877 15.3182 455.142 15.3182C456.748 15.3182 458.059 15.8258 459.074 16.8409C460.089 17.8561 460.597 19.3371 460.597 21.2841V33H456.472V21.9205C456.472 20.8371 456.184 20.0455 455.608 19.5455C455.032 19.0379 454.328 18.7841 453.494 18.7841C452.502 18.7841 451.725 19.0947 451.165 19.7159C450.612 20.3295 450.335 21.1288 450.335 22.1136V33H446.301V21.75C446.301 20.8485 446.028 20.1288 445.483 19.5909C444.945 19.053 444.241 18.7841 443.369 18.7841C442.778 18.7841 442.241 18.9356 441.756 19.2386C441.271 19.5341 440.884 19.9545 440.597 20.5C440.309 21.0379 440.165 21.6667 440.165 22.3864V33H436.051ZM464.952 33V9.72727H469.065V18.4318H469.236C469.448 18.0076 469.747 17.5568 470.134 17.0795C470.52 16.5947 471.043 16.1818 471.702 15.8409C472.361 15.4924 473.202 15.3182 474.224 15.3182C475.573 15.3182 476.789 15.6629 477.872 16.3523C478.963 17.0341 479.827 18.0455 480.463 19.3864C481.107 20.7197 481.429 22.3561 481.429 24.2955C481.429 26.2121 481.115 27.8409 480.486 29.1818C479.857 30.5227 479.001 31.5455 477.918 32.25C476.834 32.9545 475.607 33.3068 474.236 33.3068C473.236 33.3068 472.406 33.1402 471.747 32.8068C471.088 32.4735 470.558 32.072 470.156 31.6023C469.762 31.125 469.455 30.6742 469.236 30.25H468.997V33H464.952ZM468.986 24.2727C468.986 25.4015 469.145 26.3902 469.463 27.2386C469.789 28.0871 470.255 28.75 470.861 29.2273C471.474 29.697 472.217 29.9318 473.088 29.9318C473.997 29.9318 474.759 29.6894 475.372 29.2045C475.986 28.7121 476.448 28.0417 476.759 27.1932C477.077 26.3371 477.236 25.3636 477.236 24.2727C477.236 23.1894 477.08 22.2273 476.77 21.3864C476.459 20.5455 475.997 19.8864 475.384 19.4091C474.77 18.9318 474.005 18.6932 473.088 18.6932C472.209 18.6932 471.463 18.9242 470.849 19.3864C470.236 19.8485 469.77 20.4962 469.452 21.3295C469.141 22.1629 468.986 23.1439 468.986 24.2727ZM489.949 33.3523C488.843 33.3523 487.847 33.1553 486.96 32.7614C486.081 32.3598 485.384 31.7689 484.869 30.9886C484.362 30.2083 484.108 29.2462 484.108 28.1023C484.108 27.1174 484.29 26.303 484.653 25.6591C485.017 25.0152 485.513 24.5 486.142 24.1136C486.771 23.7273 487.479 23.4356 488.267 23.2386C489.063 23.0341 489.884 22.8864 490.733 22.7955C491.756 22.6894 492.585 22.5947 493.222 22.5114C493.858 22.4205 494.32 22.2841 494.608 22.1023C494.903 21.9129 495.051 21.6212 495.051 21.2273V21.1591C495.051 20.303 494.797 19.6402 494.29 19.1705C493.782 18.7008 493.051 18.4659 492.097 18.4659C491.089 18.4659 490.29 18.6856 489.699 19.125C489.116 19.5644 488.722 20.0833 488.517 20.6818L484.676 20.1364C484.979 19.0758 485.479 18.1894 486.176 17.4773C486.873 16.7576 487.725 16.2197 488.733 15.8636C489.741 15.5 490.854 15.3182 492.074 15.3182C492.915 15.3182 493.752 15.4167 494.585 15.6136C495.419 15.8106 496.18 16.1364 496.869 16.5909C497.559 17.0379 498.112 17.6477 498.528 18.4205C498.953 19.1932 499.165 20.1591 499.165 21.3182V33H495.21V30.6023H495.074C494.824 31.0871 494.472 31.5417 494.017 31.9659C493.57 32.3826 493.006 32.7197 492.324 32.9773C491.65 33.2273 490.858 33.3523 489.949 33.3523ZM491.017 30.3295C491.843 30.3295 492.559 30.1667 493.165 29.8409C493.771 29.5076 494.237 29.0682 494.562 28.5227C494.896 27.9773 495.062 27.3826 495.062 26.7386V24.6818C494.934 24.7879 494.714 24.8864 494.403 24.9773C494.1 25.0682 493.759 25.1477 493.381 25.2159C493.002 25.2841 492.627 25.3447 492.256 25.3977C491.884 25.4508 491.563 25.4962 491.29 25.5341C490.676 25.6174 490.127 25.7538 489.642 25.9432C489.157 26.1326 488.775 26.3977 488.494 26.7386C488.214 27.072 488.074 27.5038 488.074 28.0341C488.074 28.7917 488.35 29.3636 488.903 29.75C489.456 30.1364 490.161 30.3295 491.017 30.3295ZM503.301 33V15.5455H507.29V18.4545H507.472C507.79 17.447 508.335 16.6705 509.108 16.125C509.888 15.572 510.778 15.2955 511.778 15.2955C512.006 15.2955 512.259 15.3068 512.54 15.3295C512.828 15.3447 513.066 15.3712 513.256 15.4091V19.1932C513.081 19.1326 512.805 19.0795 512.426 19.0341C512.055 18.9811 511.695 18.9545 511.347 18.9545C510.597 18.9545 509.922 19.1174 509.324 19.4432C508.733 19.7614 508.267 20.2045 507.926 20.7727C507.585 21.3409 507.415 21.9962 507.415 22.7386V33H503.301ZM526.918 39.5455V30.25H526.747C526.535 30.6742 526.228 31.125 525.827 31.6023C525.425 32.072 524.895 32.4735 524.236 32.8068C523.577 33.1402 522.747 33.3068 521.747 33.3068C520.376 33.3068 519.149 32.9545 518.065 32.25C516.982 31.5455 516.126 30.5227 515.497 29.1818C514.868 27.8409 514.554 26.2121 514.554 24.2955C514.554 22.3561 514.872 20.7197 515.509 19.3864C516.152 18.0455 517.02 17.0341 518.111 16.3523C519.202 15.6629 520.418 15.3182 521.759 15.3182C522.781 15.3182 523.622 15.4924 524.281 15.8409C524.94 16.1818 525.463 16.5947 525.849 17.0795C526.236 17.5568 526.535 18.0076 526.747 18.4318H526.997V15.5455H531.043V39.5455H526.918ZM522.895 29.9318C523.766 29.9318 524.509 29.697 525.122 29.2273C525.736 28.75 526.202 28.0871 526.52 27.2386C526.838 26.3902 526.997 25.4015 526.997 24.2727C526.997 23.1439 526.838 22.1629 526.52 21.3295C526.209 20.4962 525.747 19.8485 525.134 19.3864C524.527 18.9242 523.781 18.6932 522.895 18.6932C521.978 18.6932 521.213 18.9318 520.599 19.4091C519.986 19.8864 519.524 20.5455 519.213 21.3864C518.902 22.2273 518.747 23.1894 518.747 24.2727C518.747 25.3636 518.902 26.3371 519.213 27.1932C519.531 28.0417 519.997 28.7121 520.611 29.2045C521.232 29.6894 521.993 29.9318 522.895 29.9318ZM546.395 25.6591V15.5455H550.509V33H546.52V29.8977H546.338C545.944 30.875 545.296 31.6742 544.395 32.2955C543.501 32.9167 542.399 33.2273 541.088 33.2273C539.944 33.2273 538.933 32.9735 538.054 32.4659C537.183 31.9508 536.501 31.2045 536.009 30.2273C535.516 29.2424 535.27 28.053 535.27 26.6591V15.5455H539.384V26.0227C539.384 27.1288 539.687 28.0076 540.293 28.6591C540.899 29.3106 541.694 29.6364 542.679 29.6364C543.285 29.6364 543.872 29.4886 544.44 29.1932C545.009 28.8977 545.474 28.4583 545.838 27.875C546.209 27.2841 546.395 26.5455 546.395 25.6591ZM562.466 33.3409C560.716 33.3409 559.205 32.9773 557.932 32.25C556.667 31.5152 555.693 30.4773 555.011 29.1364C554.33 27.7879 553.989 26.2008 553.989 24.375C553.989 22.5795 554.33 21.0038 555.011 19.6477C555.701 18.2841 556.663 17.2235 557.898 16.4659C559.133 15.7008 560.583 15.3182 562.25 15.3182C563.326 15.3182 564.341 15.4924 565.295 15.8409C566.258 16.1818 567.106 16.7121 567.841 17.4318C568.583 18.1515 569.167 19.0682 569.591 20.1818C570.015 21.2879 570.227 22.6061 570.227 24.1364V25.3977H555.92V22.625H566.284C566.277 21.8371 566.106 21.1364 565.773 20.5227C565.439 19.9015 564.973 19.4129 564.375 19.0568C563.784 18.7008 563.095 18.5227 562.307 18.5227C561.466 18.5227 560.727 18.7273 560.091 19.1364C559.455 19.5379 558.958 20.0682 558.602 20.7273C558.254 21.3788 558.076 22.0947 558.068 22.875V25.2955C558.068 26.3106 558.254 27.1818 558.625 27.9091C558.996 28.6288 559.515 29.1818 560.182 29.5682C560.848 29.947 561.629 30.1364 562.523 30.1364C563.121 30.1364 563.663 30.053 564.148 29.8864C564.633 29.7121 565.053 29.4583 565.409 29.125C565.765 28.7917 566.034 28.3788 566.216 27.8864L570.057 28.3182C569.814 29.3333 569.352 30.2197 568.67 30.9773C567.996 31.7273 567.133 32.3106 566.08 32.7273C565.027 33.1364 563.822 33.3409 562.466 33.3409ZM16.7188 64.25C15.5625 64.25 14.5651 63.9948 13.7266 63.4844C12.8932 62.9688 12.25 62.25 11.7969 61.3281C11.349 60.401 11.125 59.3229 11.125 58.0938C11.125 56.8646 11.349 55.7812 11.7969 54.8437C12.25 53.901 12.8802 53.1667 13.6875 52.6406C14.5 52.1094 15.4479 51.8438 16.5312 51.8438C17.1563 51.8438 17.7734 51.9479 18.3828 52.1562C18.9922 52.3646 19.5469 52.7031 20.0469 53.1719C20.5469 53.6354 20.9453 54.25 21.2422 55.0156C21.5391 55.7812 21.6875 56.724 21.6875 57.8437V58.625H12.4375V57.0312H19.8125C19.8125 56.3542 19.6771 55.75 19.4063 55.2187C19.1406 54.6875 18.7604 54.2682 18.2656 53.9609C17.776 53.6536 17.1979 53.5 16.5312 53.5C15.7969 53.5 15.1615 53.6823 14.625 54.0469C14.0938 54.4062 13.6849 54.875 13.3984 55.4531C13.112 56.0312 12.9688 56.651 12.9688 57.3125V58.375C12.9688 59.2813 13.125 60.0495 13.4375 60.6797C13.7552 61.3047 14.1953 61.7812 14.7578 62.1094C15.3203 62.4323 15.974 62.5938 16.7188 62.5938C17.2031 62.5938 17.6406 62.526 18.0313 62.3906C18.4271 62.25 18.7682 62.0417 19.0547 61.7656C19.3411 61.4844 19.5625 61.1354 19.7188 60.7187L21.5 61.2188C21.3125 61.8229 20.9974 62.3542 20.5547 62.8125C20.112 63.2656 19.5651 63.6198 18.9141 63.875C18.263 64.125 17.5313 64.25 16.7188 64.25ZM30.6797 68.5V52H32.4609V53.9062H32.6797C32.8151 53.6979 33.0026 53.4323 33.2422 53.1094C33.487 52.7812 33.8359 52.4896 34.2891 52.2344C34.7474 51.974 35.3672 51.8438 36.1484 51.8438C37.1589 51.8438 38.0495 52.0964 38.8203 52.6016C39.5911 53.1068 40.1927 53.8229 40.625 54.75C41.0573 55.6771 41.2734 56.7708 41.2734 58.0313C41.2734 59.3021 41.0573 60.4036 40.625 61.3359C40.1927 62.263 39.5938 62.9818 38.8281 63.4922C38.0625 63.9974 37.1797 64.25 36.1797 64.25C35.4089 64.25 34.7917 64.1224 34.3281 63.8672C33.8646 63.6068 33.5078 63.3125 33.2578 62.9844C33.0078 62.651 32.8151 62.375 32.6797 62.1562H32.5234V68.5H30.6797ZM32.4922 58C32.4922 58.9062 32.625 59.7057 32.8906 60.3984C33.1562 61.0859 33.5443 61.625 34.0547 62.0156C34.5651 62.401 35.1901 62.5938 35.9297 62.5938C36.7005 62.5938 37.3438 62.3906 37.8594 61.9844C38.3802 61.5729 38.7708 61.0208 39.0313 60.3281C39.2969 59.6302 39.4297 58.8542 39.4297 58C39.4297 57.1562 39.2995 56.3958 39.0391 55.7187C38.7839 55.0365 38.3958 54.4974 37.875 54.1016C37.3594 53.7005 36.7109 53.5 35.9297 53.5C35.1797 53.5 34.5495 53.6901 34.0391 54.0703C33.5286 54.4453 33.1432 54.9714 32.8828 55.6484C32.6224 56.3203 32.4922 57.1042 32.4922 58ZM48.9609 64.25C47.8776 64.25 46.9271 63.9922 46.1094 63.4766C45.2969 62.9609 44.6615 62.2396 44.2031 61.3125C43.75 60.3854 43.5234 59.3021 43.5234 58.0625C43.5234 56.8125 43.75 55.7214 44.2031 54.7891C44.6615 53.8568 45.2969 53.1328 46.1094 52.6172C46.9271 52.1016 47.8776 51.8438 48.9609 51.8438C50.0443 51.8438 50.9922 52.1016 51.8047 52.6172C52.6224 53.1328 53.2578 53.8568 53.7109 54.7891C54.1693 55.7214 54.3984 56.8125 54.3984 58.0625C54.3984 59.3021 54.1693 60.3854 53.7109 61.3125C53.2578 62.2396 52.6224 62.9609 51.8047 63.4766C50.9922 63.9922 50.0443 64.25 48.9609 64.25ZM48.9609 62.5938C49.7839 62.5938 50.4609 62.3828 50.9922 61.9609C51.5234 61.5391 51.9167 60.9844 52.1719 60.2969C52.4271 59.6094 52.5547 58.8646 52.5547 58.0625C52.5547 57.2604 52.4271 56.513 52.1719 55.8203C51.9167 55.1276 51.5234 54.5677 50.9922 54.1406C50.4609 53.7135 49.7839 53.5 48.9609 53.5C48.138 53.5 47.4609 53.7135 46.9297 54.1406C46.3984 54.5677 46.0052 55.1276 45.75 55.8203C45.4948 56.513 45.3672 57.2604 45.3672 58.0625C45.3672 58.8646 45.4948 59.6094 45.75 60.2969C46.0052 60.9844 46.3984 61.5391 46.9297 61.9609C47.4609 62.3828 48.138 62.5938 48.9609 62.5938ZM65.7129 54.6875L64.0566 55.1562C63.9525 54.8802 63.7988 54.612 63.5957 54.3516C63.3978 54.0859 63.127 53.8672 62.7832 53.6953C62.4395 53.5234 61.9993 53.4375 61.4629 53.4375C60.7285 53.4375 60.1165 53.6068 59.627 53.9453C59.1426 54.2786 58.9004 54.7031 58.9004 55.2187C58.9004 55.6771 59.0671 56.0391 59.4004 56.3047C59.7337 56.5703 60.2546 56.7917 60.9629 56.9687L62.7441 57.4063C63.8171 57.6667 64.6165 58.0651 65.1426 58.6016C65.6686 59.1328 65.9316 59.8177 65.9316 60.6562C65.9316 61.3437 65.7337 61.9583 65.3379 62.5C64.9473 63.0417 64.4004 63.4688 63.6973 63.7813C62.9941 64.0938 62.1764 64.25 61.2441 64.25C60.0202 64.25 59.0072 63.9844 58.2051 63.4531C57.403 62.9219 56.8952 62.1458 56.6816 61.125L58.4316 60.6875C58.5983 61.3333 58.9134 61.8177 59.377 62.1406C59.8457 62.4635 60.4577 62.625 61.2129 62.625C62.0723 62.625 62.7546 62.4427 63.2598 62.0781C63.7702 61.7083 64.0254 61.2656 64.0254 60.75C64.0254 60.3333 63.8796 59.9844 63.5879 59.7031C63.2962 59.4167 62.8483 59.2031 62.2441 59.0625L60.2441 58.5937C59.1452 58.3333 58.3379 57.9297 57.8223 57.3828C57.3118 56.8307 57.0566 56.1406 57.0566 55.3125C57.0566 54.6354 57.2467 54.0365 57.627 53.5156C58.0124 52.9948 58.5358 52.5859 59.1973 52.2891C59.8639 51.9922 60.6191 51.8438 61.4629 51.8438C62.6504 51.8438 63.5827 52.1042 64.2598 52.625C64.9421 53.1458 65.4264 53.8333 65.7129 54.6875ZM73.9258 52V53.5625H67.707V52H73.9258ZM69.5195 49.125H71.3633V60.5625C71.3633 61.0833 71.4388 61.474 71.5898 61.7344C71.7461 61.9896 71.944 62.1615 72.1836 62.25C72.4284 62.3333 72.6862 62.375 72.957 62.375C73.1602 62.375 73.3268 62.3646 73.457 62.3437C73.5872 62.3177 73.6914 62.2969 73.7695 62.2812L74.1445 63.9375C74.0195 63.9844 73.8451 64.0313 73.6211 64.0781C73.3971 64.1302 73.1133 64.1563 72.7695 64.1563C72.2487 64.1563 71.7383 64.0443 71.2383 63.8203C70.7435 63.5964 70.332 63.2552 70.0039 62.7969C69.681 62.3385 69.5195 61.7604 69.5195 61.0625V49.125ZM80.2305 64.2813C79.4701 64.2813 78.7799 64.138 78.1602 63.8516C77.5404 63.5599 77.0482 63.1406 76.6836 62.5938C76.319 62.0417 76.1367 61.375 76.1367 60.5937C76.1367 59.9062 76.2721 59.349 76.543 58.9219C76.8138 58.4896 77.1758 58.151 77.6289 57.9062C78.082 57.6615 78.582 57.4792 79.1289 57.3594C79.681 57.2344 80.2357 57.1354 80.793 57.0625C81.5221 56.9687 82.1133 56.8984 82.5664 56.8516C83.0247 56.7995 83.3581 56.7135 83.5664 56.5937C83.7799 56.474 83.8867 56.2656 83.8867 55.9687V55.9062C83.8867 55.1354 83.6758 54.5365 83.2539 54.1094C82.8372 53.6823 82.2044 53.4687 81.3555 53.4687C80.4753 53.4687 79.7852 53.6615 79.2852 54.0469C78.7852 54.4323 78.4336 54.8437 78.2305 55.2812L76.4805 54.6562C76.793 53.9271 77.2096 53.3594 77.7305 52.9531C78.2565 52.5417 78.8294 52.2552 79.4492 52.0937C80.0742 51.9271 80.6888 51.8438 81.293 51.8438C81.6784 51.8438 82.1211 51.8906 82.6211 51.9844C83.1263 52.0729 83.6133 52.2578 84.082 52.5391C84.556 52.8203 84.9492 53.2448 85.2617 53.8125C85.5742 54.3802 85.7305 55.1406 85.7305 56.0938V64H83.8867V62.375H83.793C83.668 62.6354 83.4596 62.9141 83.168 63.2109C82.8763 63.5078 82.4883 63.7604 82.0039 63.9687C81.5195 64.1771 80.9284 64.2813 80.2305 64.2813ZM80.5117 62.625C81.2409 62.625 81.8555 62.4818 82.3555 62.1953C82.8607 61.9089 83.2409 61.5391 83.4961 61.0859C83.7565 60.6328 83.8867 60.1562 83.8867 59.6562V57.9687C83.8086 58.0625 83.6367 58.1484 83.3711 58.2266C83.1107 58.2995 82.8086 58.3646 82.4648 58.4219C82.1263 58.474 81.7956 58.5208 81.4727 58.5625C81.1549 58.599 80.8971 58.6302 80.6992 58.6562C80.2201 58.7187 79.7721 58.8203 79.3555 58.9609C78.944 59.0964 78.6107 59.3021 78.3555 59.5781C78.1055 59.849 77.9805 60.2187 77.9805 60.6875C77.9805 61.3281 78.2174 61.8125 78.6914 62.1406C79.1706 62.4635 79.7773 62.625 80.5117 62.625ZM89.0957 64V52H90.877V53.8125H91.002C91.2207 53.2188 91.6165 52.737 92.1895 52.3672C92.7624 51.9974 93.4082 51.8125 94.127 51.8125C94.2624 51.8125 94.4316 51.8151 94.6348 51.8203C94.8379 51.8255 94.9915 51.8333 95.0957 51.8438V53.7187C95.0332 53.7031 94.89 53.6797 94.666 53.6484C94.4473 53.612 94.2155 53.5937 93.9707 53.5937C93.3874 53.5937 92.8665 53.7161 92.4082 53.9609C91.9551 54.2005 91.5957 54.5339 91.3301 54.9609C91.0697 55.3828 90.9395 55.8646 90.9395 56.4062V64H89.0957ZM105.313 56.7812V64H103.469V52H105.25V53.875H105.406C105.688 53.2656 106.115 52.776 106.688 52.4063C107.26 52.0313 108 51.8438 108.906 51.8438C109.719 51.8438 110.43 52.0104 111.039 52.3437C111.648 52.6719 112.122 53.1719 112.461 53.8437C112.799 54.5104 112.969 55.3542 112.969 56.375V64H111.125V56.5C111.125 55.5573 110.88 54.8229 110.391 54.2969C109.901 53.7656 109.229 53.5 108.375 53.5C107.786 53.5 107.26 53.6276 106.797 53.8828C106.339 54.138 105.977 54.5104 105.711 55C105.445 55.4896 105.313 56.0833 105.313 56.7812ZM119.869 64.2813C119.109 64.2813 118.419 64.138 117.799 63.8516C117.179 63.5599 116.687 63.1406 116.322 62.5938C115.958 62.0417 115.775 61.375 115.775 60.5937C115.775 59.9062 115.911 59.349 116.182 58.9219C116.452 58.4896 116.814 58.151 117.268 57.9062C117.721 57.6615 118.221 57.4792 118.768 57.3594C119.32 57.2344 119.874 57.1354 120.432 57.0625C121.161 56.9687 121.752 56.8984 122.205 56.8516C122.663 56.7995 122.997 56.7135 123.205 56.5937C123.419 56.474 123.525 56.2656 123.525 55.9687V55.9062C123.525 55.1354 123.314 54.5365 122.893 54.1094C122.476 53.6823 121.843 53.4687 120.994 53.4687C120.114 53.4687 119.424 53.6615 118.924 54.0469C118.424 54.4323 118.072 54.8437 117.869 55.2812L116.119 54.6562C116.432 53.9271 116.848 53.3594 117.369 52.9531C117.895 52.5417 118.468 52.2552 119.088 52.0937C119.713 51.9271 120.327 51.8438 120.932 51.8438C121.317 51.8438 121.76 51.8906 122.26 51.9844C122.765 52.0729 123.252 52.2578 123.721 52.5391C124.195 52.8203 124.588 53.2448 124.9 53.8125C125.213 54.3802 125.369 55.1406 125.369 56.0938V64H123.525V62.375H123.432C123.307 62.6354 123.098 62.9141 122.807 63.2109C122.515 63.5078 122.127 63.7604 121.643 63.9687C121.158 64.1771 120.567 64.2813 119.869 64.2813ZM120.15 62.625C120.88 62.625 121.494 62.4818 121.994 62.1953C122.499 61.9089 122.88 61.5391 123.135 61.0859C123.395 60.6328 123.525 60.1562 123.525 59.6562V57.9687C123.447 58.0625 123.275 58.1484 123.01 58.2266C122.749 58.2995 122.447 58.3646 122.104 58.4219C121.765 58.474 121.434 58.5208 121.111 58.5625C120.794 58.599 120.536 58.6302 120.338 58.6562C119.859 58.7187 119.411 58.8203 118.994 58.9609C118.583 59.0964 118.249 59.3021 117.994 59.5781C117.744 59.849 117.619 60.2187 117.619 60.6875C117.619 61.3281 117.856 61.8125 118.33 62.1406C118.809 62.4635 119.416 62.625 120.15 62.625ZM137.234 54.6875L135.578 55.1562C135.474 54.8802 135.32 54.612 135.117 54.3516C134.919 54.0859 134.648 53.8672 134.305 53.6953C133.961 53.5234 133.521 53.4375 132.984 53.4375C132.25 53.4375 131.638 53.6068 131.148 53.9453C130.664 54.2786 130.422 54.7031 130.422 55.2187C130.422 55.6771 130.589 56.0391 130.922 56.3047C131.255 56.5703 131.776 56.7917 132.484 56.9687L134.266 57.4063C135.339 57.6667 136.138 58.0651 136.664 58.6016C137.19 59.1328 137.453 59.8177 137.453 60.6562C137.453 61.3437 137.255 61.9583 136.859 62.5C136.469 63.0417 135.922 63.4688 135.219 63.7813C134.516 64.0938 133.698 64.25 132.766 64.25C131.542 64.25 130.529 63.9844 129.727 63.4531C128.924 62.9219 128.417 62.1458 128.203 61.125L129.953 60.6875C130.12 61.3333 130.435 61.8177 130.898 62.1406C131.367 62.4635 131.979 62.625 132.734 62.625C133.594 62.625 134.276 62.4427 134.781 62.0781C135.292 61.7083 135.547 61.2656 135.547 60.75C135.547 60.3333 135.401 59.9844 135.109 59.7031C134.818 59.4167 134.37 59.2031 133.766 59.0625L131.766 58.5937C130.667 58.3333 129.859 57.9297 129.344 57.3828C128.833 56.8307 128.578 56.1406 128.578 55.3125C128.578 54.6354 128.768 54.0365 129.148 53.5156C129.534 52.9948 130.057 52.5859 130.719 52.2891C131.385 51.9922 132.141 51.8438 132.984 51.8438C134.172 51.8438 135.104 52.1042 135.781 52.625C136.464 53.1458 136.948 53.8333 137.234 54.6875ZM146.416 64V52H148.197V53.8125H148.322C148.541 53.2188 148.937 52.737 149.51 52.3672C150.083 51.9974 150.729 51.8125 151.447 51.8125C151.583 51.8125 151.752 51.8151 151.955 51.8203C152.158 51.8255 152.312 51.8333 152.416 51.8438V53.7187C152.354 53.7031 152.21 53.6797 151.986 53.6484C151.768 53.612 151.536 53.5937 151.291 53.5937C150.708 53.5937 150.187 53.7161 149.729 53.9609C149.275 54.2005 148.916 54.5339 148.65 54.9609C148.39 55.3828 148.26 55.8646 148.26 56.4062V64H146.416ZM159.268 64.25C158.111 64.25 157.114 63.9948 156.275 63.4844C155.442 62.9688 154.799 62.25 154.346 61.3281C153.898 60.401 153.674 59.3229 153.674 58.0938C153.674 56.8646 153.898 55.7812 154.346 54.8437C154.799 53.901 155.429 53.1667 156.236 52.6406C157.049 52.1094 157.997 51.8438 159.08 51.8438C159.705 51.8438 160.322 51.9479 160.932 52.1562C161.541 52.3646 162.096 52.7031 162.596 53.1719C163.096 53.6354 163.494 54.25 163.791 55.0156C164.088 55.7812 164.236 56.724 164.236 57.8437V58.625H154.986V57.0312H162.361C162.361 56.3542 162.226 55.75 161.955 55.2187C161.689 54.6875 161.309 54.2682 160.814 53.9609C160.325 53.6536 159.747 53.5 159.08 53.5C158.346 53.5 157.71 53.6823 157.174 54.0469C156.643 54.4062 156.234 54.875 155.947 55.4531C155.661 56.0312 155.518 56.651 155.518 57.3125V58.375C155.518 59.2813 155.674 60.0495 155.986 60.6797C156.304 61.3047 156.744 61.7812 157.307 62.1094C157.869 62.4323 158.523 62.5938 159.268 62.5938C159.752 62.5938 160.189 62.526 160.58 62.3906C160.976 62.25 161.317 62.0417 161.604 61.7656C161.89 61.4844 162.111 61.1354 162.268 60.7187L164.049 61.2188C163.861 61.8229 163.546 62.3542 163.104 62.8125C162.661 63.2656 162.114 63.6198 161.463 63.875C160.812 64.125 160.08 64.25 159.268 64.25ZM171.572 64.25C170.572 64.25 169.689 63.9974 168.924 63.4922C168.158 62.9818 167.559 62.263 167.127 61.3359C166.695 60.4036 166.479 59.3021 166.479 58.0313C166.479 56.7708 166.695 55.6771 167.127 54.75C167.559 53.8229 168.161 53.1068 168.932 52.6016C169.702 52.0964 170.593 51.8438 171.604 51.8438C172.385 51.8438 173.002 51.974 173.455 52.2344C173.913 52.4896 174.262 52.7812 174.502 53.1094C174.747 53.4323 174.937 53.6979 175.072 53.9062H175.229V48H177.072V64H175.291V62.1562H175.072C174.937 62.375 174.744 62.651 174.494 62.9844C174.244 63.3125 173.887 63.6068 173.424 63.8672C172.96 64.1224 172.343 64.25 171.572 64.25ZM171.822 62.5938C172.562 62.5938 173.187 62.401 173.697 62.0156C174.208 61.625 174.596 61.0859 174.861 60.3984C175.127 59.7057 175.26 58.9062 175.26 58C175.26 57.1042 175.13 56.3203 174.869 55.6484C174.609 54.9714 174.223 54.4453 173.713 54.0703C173.202 53.6901 172.572 53.5 171.822 53.5C171.041 53.5 170.39 53.7005 169.869 54.1016C169.354 54.4974 168.965 55.0365 168.705 55.7187C168.45 56.3958 168.322 57.1562 168.322 58C168.322 58.8542 168.452 59.6302 168.713 60.3281C168.979 61.0208 169.369 61.5729 169.885 61.9844C170.406 62.3906 171.051 62.5938 171.822 62.5938ZM185.736 64.25C184.58 64.25 183.583 63.9948 182.744 63.4844C181.911 62.9688 181.268 62.25 180.814 61.3281C180.367 60.401 180.143 59.3229 180.143 58.0938C180.143 56.8646 180.367 55.7812 180.814 54.8437C181.268 53.901 181.898 53.1667 182.705 52.6406C183.518 52.1094 184.465 51.8438 185.549 51.8438C186.174 51.8438 186.791 51.9479 187.4 52.1562C188.01 52.3646 188.564 52.7031 189.064 53.1719C189.564 53.6354 189.963 54.25 190.26 55.0156C190.557 55.7812 190.705 56.724 190.705 57.8437V58.625H181.455V57.0312H188.83C188.83 56.3542 188.695 55.75 188.424 55.2187C188.158 54.6875 187.778 54.2682 187.283 53.9609C186.794 53.6536 186.215 53.5 185.549 53.5C184.814 53.5 184.179 53.6823 183.643 54.0469C183.111 54.4062 182.702 54.875 182.416 55.4531C182.13 56.0312 181.986 56.651 181.986 57.3125V58.375C181.986 59.2813 182.143 60.0495 182.455 60.6797C182.773 61.3047 183.213 61.7812 183.775 62.1094C184.338 62.4323 184.992 62.5938 185.736 62.5938C186.221 62.5938 186.658 62.526 187.049 62.3906C187.445 62.25 187.786 62.0417 188.072 61.7656C188.359 61.4844 188.58 61.1354 188.736 60.7187L190.518 61.2188C190.33 61.8229 190.015 62.3542 189.572 62.8125C189.13 63.2656 188.583 63.6198 187.932 63.875C187.281 64.125 186.549 64.25 185.736 64.25ZM202.01 54.6875L200.354 55.1562C200.249 54.8802 200.096 54.612 199.893 54.3516C199.695 54.0859 199.424 53.8672 199.08 53.6953C198.736 53.5234 198.296 53.4375 197.76 53.4375C197.025 53.4375 196.413 53.6068 195.924 53.9453C195.439 54.2786 195.197 54.7031 195.197 55.2187C195.197 55.6771 195.364 56.0391 195.697 56.3047C196.031 56.5703 196.551 56.7917 197.26 56.9687L199.041 57.4063C200.114 57.6667 200.913 58.0651 201.439 58.6016C201.965 59.1328 202.229 59.8177 202.229 60.6562C202.229 61.3437 202.031 61.9583 201.635 62.5C201.244 63.0417 200.697 63.4688 199.994 63.7813C199.291 64.0938 198.473 64.25 197.541 64.25C196.317 64.25 195.304 63.9844 194.502 63.4531C193.7 62.9219 193.192 62.1458 192.979 61.125L194.729 60.6875C194.895 61.3333 195.21 61.8177 195.674 62.1406C196.143 62.4635 196.755 62.625 197.51 62.625C198.369 62.625 199.051 62.4427 199.557 62.0781C200.067 61.7083 200.322 61.2656 200.322 60.75C200.322 60.3333 200.176 59.9844 199.885 59.7031C199.593 59.4167 199.145 59.2031 198.541 59.0625L196.541 58.5937C195.442 58.3333 194.635 57.9297 194.119 57.3828C193.609 56.8307 193.354 56.1406 193.354 55.3125C193.354 54.6354 193.544 54.0365 193.924 53.5156C194.309 52.9948 194.833 52.5859 195.494 52.2891C196.161 51.9922 196.916 51.8438 197.76 51.8438C198.947 51.8438 199.88 52.1042 200.557 52.625C201.239 53.1458 201.723 53.8333 202.01 54.6875ZM219.691 54.6875L218.035 55.1562C217.931 54.8802 217.777 54.612 217.574 54.3516C217.376 54.0859 217.105 53.8672 216.762 53.6953C216.418 53.5234 215.978 53.4375 215.441 53.4375C214.707 53.4375 214.095 53.6068 213.605 53.9453C213.121 54.2786 212.879 54.7031 212.879 55.2187C212.879 55.6771 213.046 56.0391 213.379 56.3047C213.712 56.5703 214.233 56.7917 214.941 56.9687L216.723 57.4063C217.796 57.6667 218.595 58.0651 219.121 58.6016C219.647 59.1328 219.91 59.8177 219.91 60.6562C219.91 61.3437 219.712 61.9583 219.316 62.5C218.926 63.0417 218.379 63.4688 217.676 63.7813C216.973 64.0938 216.155 64.25 215.223 64.25C213.999 64.25 212.986 63.9844 212.184 63.4531C211.382 62.9219 210.874 62.1458 210.66 61.125L212.41 60.6875C212.577 61.3333 212.892 61.8177 213.355 62.1406C213.824 62.4635 214.436 62.625 215.191 62.625C216.051 62.625 216.733 62.4427 217.238 62.0781C217.749 61.7083 218.004 61.2656 218.004 60.75C218.004 60.3333 217.858 59.9844 217.566 59.7031C217.275 59.4167 216.827 59.2031 216.223 59.0625L214.223 58.5937C213.124 58.3333 212.316 57.9297 211.801 57.3828C211.29 56.8307 211.035 56.1406 211.035 55.3125C211.035 54.6354 211.225 54.0365 211.605 53.5156C211.991 52.9948 212.514 52.5859 213.176 52.2891C213.842 51.9922 214.598 51.8438 215.441 51.8438C216.629 51.8438 217.561 52.1042 218.238 52.625C218.921 53.1458 219.405 53.8333 219.691 54.6875ZM227.561 64.25C226.477 64.25 225.527 63.9922 224.709 63.4766C223.896 62.9609 223.261 62.2396 222.803 61.3125C222.35 60.3854 222.123 59.3021 222.123 58.0625C222.123 56.8125 222.35 55.7214 222.803 54.7891C223.261 53.8568 223.896 53.1328 224.709 52.6172C225.527 52.1016 226.477 51.8438 227.561 51.8438C228.644 51.8438 229.592 52.1016 230.404 52.6172C231.222 53.1328 231.857 53.8568 232.311 54.7891C232.769 55.7214 232.998 56.8125 232.998 58.0625C232.998 59.3021 232.769 60.3854 232.311 61.3125C231.857 62.2396 231.222 62.9609 230.404 63.4766C229.592 63.9922 228.644 64.25 227.561 64.25ZM227.561 62.5938C228.383 62.5938 229.061 62.3828 229.592 61.9609C230.123 61.5391 230.516 60.9844 230.771 60.2969C231.027 59.6094 231.154 58.8646 231.154 58.0625C231.154 57.2604 231.027 56.513 230.771 55.8203C230.516 55.1276 230.123 54.5677 229.592 54.1406C229.061 53.7135 228.383 53.5 227.561 53.5C226.738 53.5 226.061 53.7135 225.529 54.1406C224.998 54.5677 224.605 55.1276 224.35 55.8203C224.094 56.513 223.967 57.2604 223.967 58.0625C223.967 58.8646 224.094 59.6094 224.35 60.2969C224.605 60.9844 224.998 61.5391 225.529 61.9609C226.061 62.3828 226.738 62.5938 227.561 62.5938ZM240.688 64.25C239.563 64.25 238.594 63.9844 237.781 63.4531C236.969 62.9219 236.344 62.1901 235.906 61.2578C235.469 60.3255 235.25 59.2604 235.25 58.0625C235.25 56.8437 235.474 55.7682 235.922 54.8359C236.375 53.8984 237.005 53.1667 237.813 52.6406C238.625 52.1094 239.573 51.8438 240.656 51.8438C241.5 51.8438 242.26 52 242.938 52.3125C243.615 52.625 244.169 53.0625 244.602 53.625C245.034 54.1875 245.302 54.8437 245.406 55.5937H243.563C243.422 55.0469 243.109 54.5625 242.625 54.1406C242.146 53.7135 241.5 53.5 240.688 53.5C239.969 53.5 239.339 53.6875 238.797 54.0625C238.26 54.4323 237.841 54.9557 237.539 55.6328C237.242 56.3047 237.094 57.0937 237.094 58C237.094 58.9271 237.24 59.7344 237.531 60.4219C237.828 61.1094 238.245 61.6432 238.781 62.0234C239.323 62.4036 239.958 62.5938 240.688 62.5938C241.167 62.5938 241.602 62.5104 241.992 62.3437C242.383 62.1771 242.714 61.9375 242.984 61.625C243.255 61.3125 243.448 60.9375 243.563 60.5H245.406C245.302 61.2083 245.044 61.8464 244.633 62.4141C244.227 62.9766 243.688 63.4245 243.016 63.7578C242.349 64.0859 241.573 64.25 240.688 64.25ZM248.102 64V52H249.945V64H248.102ZM249.039 50C248.68 50 248.37 49.8776 248.109 49.6328C247.854 49.388 247.727 49.0938 247.727 48.75C247.727 48.4063 247.854 48.112 248.109 47.8672C248.37 47.6224 248.68 47.5 249.039 47.5C249.398 47.5 249.706 47.6224 249.961 47.8672C250.221 48.112 250.352 48.4063 250.352 48.75C250.352 49.0938 250.221 49.388 249.961 49.6328C249.706 49.8776 249.398 50 249.039 50ZM256.854 64.2813C256.093 64.2813 255.403 64.138 254.783 63.8516C254.163 63.5599 253.671 63.1406 253.307 62.5938C252.942 62.0417 252.76 61.375 252.76 60.5937C252.76 59.9062 252.895 59.349 253.166 58.9219C253.437 58.4896 253.799 58.151 254.252 57.9062C254.705 57.6615 255.205 57.4792 255.752 57.3594C256.304 57.2344 256.859 57.1354 257.416 57.0625C258.145 56.9687 258.736 56.8984 259.189 56.8516C259.648 56.7995 259.981 56.7135 260.189 56.5937C260.403 56.474 260.51 56.2656 260.51 55.9687V55.9062C260.51 55.1354 260.299 54.5365 259.877 54.1094C259.46 53.6823 258.827 53.4687 257.979 53.4687C257.098 53.4687 256.408 53.6615 255.908 54.0469C255.408 54.4323 255.057 54.8437 254.854 55.2812L253.104 54.6562C253.416 53.9271 253.833 53.3594 254.354 52.9531C254.88 52.5417 255.452 52.2552 256.072 52.0937C256.697 51.9271 257.312 51.8438 257.916 51.8438C258.301 51.8438 258.744 51.8906 259.244 51.9844C259.749 52.0729 260.236 52.2578 260.705 52.5391C261.179 52.8203 261.572 53.2448 261.885 53.8125C262.197 54.3802 262.354 55.1406 262.354 56.0938V64H260.51V62.375H260.416C260.291 62.6354 260.083 62.9141 259.791 63.2109C259.499 63.5078 259.111 63.7604 258.627 63.9687C258.143 64.1771 257.551 64.2813 256.854 64.2813ZM257.135 62.625C257.864 62.625 258.479 62.4818 258.979 62.1953C259.484 61.9089 259.864 61.5391 260.119 61.0859C260.38 60.6328 260.51 60.1562 260.51 59.6562V57.9687C260.432 58.0625 260.26 58.1484 259.994 58.2266C259.734 58.2995 259.432 58.3646 259.088 58.4219C258.749 58.474 258.419 58.5208 258.096 58.5625C257.778 58.599 257.52 58.6302 257.322 58.6562C256.843 58.7187 256.395 58.8203 255.979 58.9609C255.567 59.0964 255.234 59.3021 254.979 59.5781C254.729 59.849 254.604 60.2187 254.604 60.6875C254.604 61.3281 254.84 61.8125 255.314 62.1406C255.794 62.4635 256.4 62.625 257.135 62.625ZM265.719 64V52H267.563V64H265.719ZM266.656 50C266.297 50 265.987 49.8776 265.727 49.6328C265.471 49.388 265.344 49.0938 265.344 48.75C265.344 48.4063 265.471 48.112 265.727 47.8672C265.987 47.6224 266.297 47.5 266.656 47.5C267.016 47.5 267.323 47.6224 267.578 47.8672C267.839 48.112 267.969 48.4063 267.969 48.75C267.969 49.0938 267.839 49.388 267.578 49.6328C267.323 49.8776 267.016 50 266.656 50ZM279.439 54.6875L277.783 55.1562C277.679 54.8802 277.525 54.612 277.322 54.3516C277.124 54.0859 276.854 53.8672 276.51 53.6953C276.166 53.5234 275.726 53.4375 275.189 53.4375C274.455 53.4375 273.843 53.6068 273.354 53.9453C272.869 54.2786 272.627 54.7031 272.627 55.2187C272.627 55.6771 272.794 56.0391 273.127 56.3047C273.46 56.5703 273.981 56.7917 274.689 56.9687L276.471 57.4063C277.544 57.6667 278.343 58.0651 278.869 58.6016C279.395 59.1328 279.658 59.8177 279.658 60.6562C279.658 61.3437 279.46 61.9583 279.064 62.5C278.674 63.0417 278.127 63.4688 277.424 63.7813C276.721 64.0938 275.903 64.25 274.971 64.25C273.747 64.25 272.734 63.9844 271.932 63.4531C271.13 62.9219 270.622 62.1458 270.408 61.125L272.158 60.6875C272.325 61.3333 272.64 61.8177 273.104 62.1406C273.572 62.4635 274.184 62.625 274.939 62.625C275.799 62.625 276.481 62.4427 276.986 62.0781C277.497 61.7083 277.752 61.2656 277.752 60.75C277.752 60.3333 277.606 59.9844 277.314 59.7031C277.023 59.4167 276.575 59.2031 275.971 59.0625L273.971 58.5937C272.872 58.3333 272.064 57.9297 271.549 57.3828C271.038 56.8307 270.783 56.1406 270.783 55.3125C270.783 54.6354 270.973 54.0365 271.354 53.5156C271.739 52.9948 272.262 52.5859 272.924 52.2891C273.59 51.9922 274.346 51.8438 275.189 51.8438C276.377 51.8438 277.309 52.1042 277.986 52.625C278.669 53.1458 279.153 53.8333 279.439 54.6875ZM292.152 64.2813C291.392 64.2813 290.702 64.138 290.082 63.8516C289.462 63.5599 288.97 63.1406 288.605 62.5938C288.241 62.0417 288.059 61.375 288.059 60.5937C288.059 59.9062 288.194 59.349 288.465 58.9219C288.736 58.4896 289.098 58.151 289.551 57.9062C290.004 57.6615 290.504 57.4792 291.051 57.3594C291.603 57.2344 292.158 57.1354 292.715 57.0625C293.444 56.9687 294.035 56.8984 294.488 56.8516C294.947 56.7995 295.28 56.7135 295.488 56.5937C295.702 56.474 295.809 56.2656 295.809 55.9687V55.9062C295.809 55.1354 295.598 54.5365 295.176 54.1094C294.759 53.6823 294.126 53.4687 293.277 53.4687C292.397 53.4687 291.707 53.6615 291.207 54.0469C290.707 54.4323 290.355 54.8437 290.152 55.2812L288.402 54.6562C288.715 53.9271 289.132 53.3594 289.652 52.9531C290.178 52.5417 290.751 52.2552 291.371 52.0937C291.996 51.9271 292.611 51.8438 293.215 51.8438C293.6 51.8438 294.043 51.8906 294.543 51.9844C295.048 52.0729 295.535 52.2578 296.004 52.5391C296.478 52.8203 296.871 53.2448 297.184 53.8125C297.496 54.3802 297.652 55.1406 297.652 56.0938V64H295.809V62.375H295.715C295.59 62.6354 295.382 62.9141 295.09 63.2109C294.798 63.5078 294.41 63.7604 293.926 63.9687C293.441 64.1771 292.85 64.2813 292.152 64.2813ZM292.434 62.625C293.163 62.625 293.777 62.4818 294.277 62.1953C294.783 61.9089 295.163 61.5391 295.418 61.0859C295.678 60.6328 295.809 60.1562 295.809 59.6562V57.9687C295.73 58.0625 295.559 58.1484 295.293 58.2266C295.033 58.2995 294.73 58.3646 294.387 58.4219C294.048 58.474 293.717 58.5208 293.395 58.5625C293.077 58.599 292.819 58.6302 292.621 58.6562C292.142 58.7187 291.694 58.8203 291.277 58.9609C290.866 59.0964 290.533 59.3021 290.277 59.5781C290.027 59.849 289.902 60.2187 289.902 60.6875C289.902 61.3281 290.139 61.8125 290.613 62.1406C291.092 62.4635 291.699 62.625 292.434 62.625ZM309.049 56.7812V64H307.205V48H309.049V53.875H309.205C309.486 53.2552 309.908 52.763 310.471 52.3984C311.038 52.0286 311.794 51.8438 312.736 51.8438C313.554 51.8438 314.27 52.0078 314.885 52.3359C315.499 52.6589 315.976 53.1562 316.314 53.8281C316.658 54.4948 316.83 55.3437 316.83 56.375V64H314.986V56.5C314.986 55.5469 314.739 54.8099 314.244 54.2891C313.755 53.763 313.075 53.5 312.205 53.5C311.601 53.5 311.059 53.6276 310.58 53.8828C310.106 54.138 309.731 54.5104 309.455 55C309.184 55.4896 309.049 56.0833 309.049 56.7812ZM323.734 64.2813C322.974 64.2813 322.284 64.138 321.664 63.8516C321.044 63.5599 320.552 63.1406 320.188 62.5938C319.823 62.0417 319.641 61.375 319.641 60.5937C319.641 59.9062 319.776 59.349 320.047 58.9219C320.318 58.4896 320.68 58.151 321.133 57.9062C321.586 57.6615 322.086 57.4792 322.633 57.3594C323.185 57.2344 323.74 57.1354 324.297 57.0625C325.026 56.9687 325.617 56.8984 326.07 56.8516C326.529 56.7995 326.862 56.7135 327.07 56.5937C327.284 56.474 327.391 56.2656 327.391 55.9687V55.9062C327.391 55.1354 327.18 54.5365 326.758 54.1094C326.341 53.6823 325.708 53.4687 324.859 53.4687C323.979 53.4687 323.289 53.6615 322.789 54.0469C322.289 54.4323 321.938 54.8437 321.734 55.2812L319.984 54.6562C320.297 53.9271 320.714 53.3594 321.234 52.9531C321.76 52.5417 322.333 52.2552 322.953 52.0937C323.578 51.9271 324.193 51.8438 324.797 51.8438C325.182 51.8438 325.625 51.8906 326.125 51.9844C326.63 52.0729 327.117 52.2578 327.586 52.5391C328.06 52.8203 328.453 53.2448 328.766 53.8125C329.078 54.3802 329.234 55.1406 329.234 56.0938V64H327.391V62.375H327.297C327.172 62.6354 326.964 62.9141 326.672 63.2109C326.38 63.5078 325.992 63.7604 325.508 63.9687C325.023 64.1771 324.432 64.2813 323.734 64.2813ZM324.016 62.625C324.745 62.625 325.359 62.4818 325.859 62.1953C326.365 61.9089 326.745 61.5391 327 61.0859C327.26 60.6328 327.391 60.1562 327.391 59.6562V57.9687C327.313 58.0625 327.141 58.1484 326.875 58.2266C326.615 58.2995 326.312 58.3646 325.969 58.4219C325.63 58.474 325.299 58.5208 324.977 58.5625C324.659 58.599 324.401 58.6302 324.203 58.6562C323.724 58.7187 323.276 58.8203 322.859 58.9609C322.448 59.0964 322.115 59.3021 321.859 59.5781C321.609 59.849 321.484 60.2187 321.484 60.6875C321.484 61.3281 321.721 61.8125 322.195 62.1406C322.674 62.4635 323.281 62.625 324.016 62.625ZM341.1 54.6875L339.443 55.1562C339.339 54.8802 339.186 54.612 338.982 54.3516C338.785 54.0859 338.514 53.8672 338.17 53.6953C337.826 53.5234 337.386 53.4375 336.85 53.4375C336.115 53.4375 335.503 53.6068 335.014 53.9453C334.529 54.2786 334.287 54.7031 334.287 55.2187C334.287 55.6771 334.454 56.0391 334.787 56.3047C335.12 56.5703 335.641 56.7917 336.35 56.9687L338.131 57.4063C339.204 57.6667 340.003 58.0651 340.529 58.6016C341.055 59.1328 341.318 59.8177 341.318 60.6562C341.318 61.3437 341.12 61.9583 340.725 62.5C340.334 63.0417 339.787 63.4688 339.084 63.7813C338.381 64.0938 337.563 64.25 336.631 64.25C335.407 64.25 334.394 63.9844 333.592 63.4531C332.79 62.9219 332.282 62.1458 332.068 61.125L333.818 60.6875C333.985 61.3333 334.3 61.8177 334.764 62.1406C335.232 62.4635 335.844 62.625 336.6 62.625C337.459 62.625 338.141 62.4427 338.646 62.0781C339.157 61.7083 339.412 61.2656 339.412 60.75C339.412 60.3333 339.266 59.9844 338.975 59.7031C338.683 59.4167 338.235 59.2031 337.631 59.0625L335.631 58.5937C334.532 58.3333 333.725 57.9297 333.209 57.3828C332.699 56.8307 332.443 56.1406 332.443 55.3125C332.443 54.6354 332.633 54.0365 333.014 53.5156C333.399 52.9948 333.923 52.5859 334.584 52.2891C335.251 51.9922 336.006 51.8438 336.85 51.8438C338.037 51.8438 338.969 52.1042 339.646 52.625C340.329 53.1458 340.813 53.8333 341.1 54.6875ZM345.938 56.7812V64H344.094V48H345.938V53.875H346.094C346.375 53.2552 346.797 52.763 347.359 52.3984C347.927 52.0286 348.682 51.8438 349.625 51.8438C350.443 51.8438 351.159 52.0078 351.773 52.3359C352.388 52.6589 352.865 53.1562 353.203 53.8281C353.547 54.4948 353.719 55.3437 353.719 56.375V64H351.875V56.5C351.875 55.5469 351.628 54.8099 351.133 54.2891C350.643 53.763 349.964 53.5 349.094 53.5C348.49 53.5 347.948 53.6276 347.469 53.8828C346.995 54.138 346.62 54.5104 346.344 55C346.073 55.4896 345.938 56.0833 345.938 56.7812ZM362.311 52V53.5625H356.092V52H362.311ZM357.904 49.125H359.748V60.5625C359.748 61.0833 359.824 61.474 359.975 61.7344C360.131 61.9896 360.329 62.1615 360.568 62.25C360.813 62.3333 361.071 62.375 361.342 62.375C361.545 62.375 361.712 62.3646 361.842 62.3437C361.972 62.3177 362.076 62.2969 362.154 62.2812L362.529 63.9375C362.404 63.9844 362.23 64.0313 362.006 64.0781C361.782 64.1302 361.498 64.1563 361.154 64.1563C360.633 64.1563 360.123 64.0443 359.623 63.8203C359.128 63.5964 358.717 63.2552 358.389 62.7969C358.066 62.3385 357.904 61.7604 357.904 61.0625V49.125ZM368.615 64.2813C367.855 64.2813 367.165 64.138 366.545 63.8516C365.925 63.5599 365.433 63.1406 365.068 62.5938C364.704 62.0417 364.521 61.375 364.521 60.5937C364.521 59.9062 364.657 59.349 364.928 58.9219C365.199 58.4896 365.561 58.151 366.014 57.9062C366.467 57.6615 366.967 57.4792 367.514 57.3594C368.066 57.2344 368.62 57.1354 369.178 57.0625C369.907 56.9687 370.498 56.8984 370.951 56.8516C371.41 56.7995 371.743 56.7135 371.951 56.5937C372.165 56.474 372.271 56.2656 372.271 55.9687V55.9062C372.271 55.1354 372.061 54.5365 371.639 54.1094C371.222 53.6823 370.589 53.4687 369.74 53.4687C368.86 53.4687 368.17 53.6615 367.67 54.0469C367.17 54.4323 366.818 54.8437 366.615 55.2812L364.865 54.6562C365.178 53.9271 365.594 53.3594 366.115 52.9531C366.641 52.5417 367.214 52.2552 367.834 52.0937C368.459 51.9271 369.074 51.8438 369.678 51.8438C370.063 51.8438 370.506 51.8906 371.006 51.9844C371.511 52.0729 371.998 52.2578 372.467 52.5391C372.941 52.8203 373.334 53.2448 373.646 53.8125C373.959 54.3802 374.115 55.1406 374.115 56.0938V64H372.271V62.375H372.178C372.053 62.6354 371.844 62.9141 371.553 63.2109C371.261 63.5078 370.873 63.7604 370.389 63.9687C369.904 64.1771 369.313 64.2813 368.615 64.2813ZM368.896 62.625C369.626 62.625 370.24 62.4818 370.74 62.1953C371.245 61.9089 371.626 61.5391 371.881 61.0859C372.141 60.6328 372.271 60.1562 372.271 59.6562V57.9687C372.193 58.0625 372.021 58.1484 371.756 58.2266C371.495 58.2995 371.193 58.3646 370.85 58.4219C370.511 58.474 370.18 58.5208 369.857 58.5625C369.54 58.599 369.282 58.6302 369.084 58.6562C368.605 58.7187 368.157 58.8203 367.74 58.9609C367.329 59.0964 366.995 59.3021 366.74 59.5781C366.49 59.849 366.365 60.2187 366.365 60.6875C366.365 61.3281 366.602 61.8125 367.076 62.1406C367.555 62.4635 368.162 62.625 368.896 62.625ZM382.324 68.75C381.434 68.75 380.668 68.6354 380.027 68.4063C379.387 68.1823 378.853 67.8854 378.426 67.5156C378.004 67.151 377.668 66.7604 377.418 66.3438L378.887 65.3125C379.053 65.5313 379.264 65.7813 379.52 66.0625C379.775 66.349 380.124 66.5964 380.566 66.8047C381.014 67.0182 381.6 67.125 382.324 67.125C383.293 67.125 384.092 66.8906 384.723 66.4219C385.353 65.9531 385.668 65.2187 385.668 64.2187V61.7812H385.512C385.376 62 385.184 62.2708 384.934 62.5938C384.689 62.9115 384.335 63.1953 383.871 63.4453C383.413 63.6901 382.793 63.8125 382.012 63.8125C381.043 63.8125 380.173 63.5833 379.402 63.125C378.637 62.6667 378.03 62 377.582 61.125C377.139 60.25 376.918 59.1875 376.918 57.9375C376.918 56.7083 377.134 55.638 377.566 54.7266C377.999 53.8099 378.6 53.1016 379.371 52.6016C380.142 52.0964 381.033 51.8438 382.043 51.8438C382.824 51.8438 383.444 51.974 383.902 52.2344C384.366 52.4896 384.72 52.7812 384.965 53.1094C385.215 53.4323 385.408 53.6979 385.543 53.9062H385.73V52H387.512V64.3438C387.512 65.375 387.277 66.2135 386.809 66.8594C386.345 67.5104 385.72 67.987 384.934 68.2891C384.152 68.5964 383.283 68.75 382.324 68.75ZM382.262 62.1562C383.001 62.1562 383.626 61.987 384.137 61.6484C384.647 61.3099 385.035 60.8229 385.301 60.1875C385.566 59.5521 385.699 58.7917 385.699 57.9062C385.699 57.0417 385.569 56.2786 385.309 55.6172C385.048 54.9557 384.663 54.4375 384.152 54.0625C383.642 53.6875 383.012 53.5 382.262 53.5C381.48 53.5 380.829 53.6979 380.309 54.0937C379.793 54.4896 379.405 55.0208 379.145 55.6875C378.889 56.3542 378.762 57.0937 378.762 57.9062C378.762 58.7396 378.892 59.4766 379.152 60.1172C379.418 60.7526 379.809 61.2526 380.324 61.6172C380.845 61.9766 381.491 62.1562 382.262 62.1562Z" fill="white"/>
</svg>
