<svg width="23" height="26" viewBox="0 0 23 26" fill="none" xmlns="http://www.w3.org/2000/svg">
<path d="M21.2355 2.04912L18.276 1.61767C18.1884 1.60042 18.1008 1.63493 18.0658 1.66944L16.805 3.29167C16.7174 3.39521 16.6998 3.53328 16.7349 3.65408C16.7699 3.77488 16.6648 3.87844 16.5422 3.86117L15.509 3.63682C15.3514 3.60231 15.1763 3.65408 15.0712 3.79215L10.9733 8.9695C10.9033 9.07304 10.7632 9.10751 10.6406 9.05577L9.08202 8.36543C8.94192 8.29642 8.7843 8.31369 8.66172 8.39996L7.87366 8.93496C7.75108 9.02124 7.57596 9.0385 7.43586 8.9695L7.05059 8.77961C6.80542 8.65879 6.50771 8.79688 6.43766 9.05577L6.15746 10.2811C6.08741 10.5744 6.21 10.8678 6.47268 11.0231L7.0681 11.3855L8.97694 12.5418L9.90511 13.1113C10.1678 13.2666 10.5005 13.2321 10.7282 13.0423L12.2868 11.6962C12.4094 11.5926 12.602 11.5581 12.7421 11.6444L13.2149 11.886C13.3725 11.9723 13.5652 11.9378 13.6877 11.817L14.4758 11.0921C14.5984 10.9713 14.791 10.9541 14.9311 11.0231L16.1045 11.5581C16.2796 11.6444 16.4897 11.5926 16.6123 11.4373L17.1552 10.747L21.2705 5.55243C21.4632 5.31083 21.3406 4.94841 21.0254 4.87938L20.1147 4.67229C19.9221 4.63777 19.8345 4.39616 19.9747 4.2581L21.3931 2.51507C21.5333 2.30798 21.4457 2.08363 21.2355 2.04912Z" fill="#8257E5"/>
<path d="M7.6633 12.5072C7.57573 12.4555 7.48817 12.5418 7.5232 12.6281L7.961 13.7671C7.99603 13.8533 7.99603 13.9396 7.97851 14.026L7.59325 15.5101C7.57573 15.6136 7.61076 15.7172 7.68081 15.769L8.78408 16.6146C8.88915 16.6836 9.02925 16.6836 9.11682 16.5973L10.2726 15.5964C10.3427 15.5446 10.4302 15.5101 10.5003 15.4929L11.8137 15.3548C11.9013 15.3375 11.9363 15.2167 11.8487 15.165L7.6633 12.5072Z" fill="#8257E5"/>
<path d="M7.27814 16.3388C7.2081 16.287 7.10302 16.2698 7.01546 16.3043L6.08731 16.7529C6.03477 16.7702 5.99975 16.822 5.96472 16.8738L3.98584 21.6887C3.98584 21.7059 3.98584 21.7059 3.98584 21.7232C4.00335 21.7405 4.02086 21.7577 4.05589 21.7577L4.51121 21.5851C4.52872 21.5851 4.54623 21.5851 4.56374 21.5851C4.58125 21.6024 4.59876 21.6369 4.58125 21.6542L3.16276 23.9495C3.12773 24.0012 3.19779 24.053 3.23281 24.0012L8.36391 18.9275C8.41644 18.8757 8.43396 18.8239 8.45147 18.7548L8.55654 17.4433C8.55654 17.357 8.52152 17.2879 8.46898 17.2362L7.27814 16.3388Z" fill="#8257E5"/>
</svg>
